<svg width="28" height="30" viewBox="0 0 28 30" fill="none" xmlns="http://www.w3.org/2000/svg">
<path d="M27.5 3H6.5C5.70435 3 4.94129 3.31607 4.37868 3.87868C3.81607 4.44129 3.5 5.20435 3.5 6C3.5 6.79565 3.81607 7.55871 4.37868 8.12132C4.94129 8.68393 5.70435 9 6.5 9H27.5V28.5C27.5 28.8978 27.342 29.2794 27.0607 29.5607C26.7794 29.842 26.3978 30 26 30H6.5C4.9087 30 3.38258 29.3679 2.25736 28.2426C1.13214 27.1174 0.5 25.5913 0.5 24V6C0.5 4.4087 1.13214 2.88258 2.25736 1.75736C3.38258 0.632141 4.9087 0 6.5 0H26C26.3978 0 26.7794 0.158035 27.0607 0.43934C27.342 0.720644 27.5 1.10218 27.5 1.5V3ZM3.5 24C3.5 24.7956 3.81607 25.5587 4.37868 26.1213C4.94129 26.6839 5.70435 27 6.5 27H24.5V12H6.5C5.44674 12.0017 4.41175 11.7248 3.5 11.1975V24ZM26 7.5H6.5C6.10218 7.5 5.72064 7.34196 5.43934 7.06066C5.15804 6.77936 5 6.39782 5 6C5 5.60218 5.15804 5.22064 5.43934 4.93934C5.72064 4.65804 6.10218 4.5 6.5 4.5H26V7.5Z" fill="#390179"/>
</svg>
