<svg width="30" height="28" viewBox="0 0 30 28" fill="none" xmlns="http://www.w3.org/2000/svg">
<path d="M28.5 0.5C28.8978 0.5 29.2794 0.658035 29.5607 0.93934C29.842 1.22064 30 1.60218 30 2V10.25C29.0054 10.25 28.0516 10.6451 27.3483 11.3483C26.6451 12.0516 26.25 13.0054 26.25 14C26.25 14.9946 26.6451 15.9484 27.3483 16.6517C28.0516 17.3549 29.0054 17.75 30 17.75V26C30 26.3978 29.842 26.7794 29.5607 27.0607C29.2794 27.342 28.8978 27.5 28.5 27.5H1.5C1.10218 27.5 0.720644 27.342 0.43934 27.0607C0.158035 26.7794 0 26.3978 0 26V17.75C0.994562 17.75 1.94839 17.3549 2.65165 16.6517C3.35491 15.9484 3.75 14.9946 3.75 14C3.75 13.0054 3.35491 12.0516 2.65165 11.3483C1.94839 10.6451 0.994562 10.25 0 10.25V2C0 1.60218 0.158035 1.22064 0.43934 0.93934C0.720644 0.658035 1.10218 0.5 1.5 0.5H28.5ZM27 3.5H3V7.952L3.234 8.0735C4.25148 8.62857 5.10889 9.43629 5.72365 10.4189C6.33841 11.4014 6.68981 12.5257 6.744 13.6835L6.75 14C6.75019 15.2124 6.42378 16.4024 5.80508 17.445C5.18637 18.4876 4.29823 19.3443 3.234 19.925L3 20.048V24.5H27V20.0465L26.766 19.9265C25.7485 19.3714 24.8911 18.5637 24.2763 17.5811C23.6616 16.5986 23.3102 15.4743 23.256 14.3165L23.25 14C23.25 11.444 24.6705 9.2195 26.766 8.075L27 7.9505V3.5ZM21 9.5V18.5H9V9.5H21Z" fill="#390179"/>
</svg>
