<svg width="136" height="32" viewBox="0 0 136 32" fill="none" xmlns="http://www.w3.org/2000/svg">
<path d="M21.7446 17.0163C21.7605 15.7898 22.0862 14.5871 22.6917 13.5204C23.2972 12.4536 24.1627 11.5573 25.2076 10.9148C24.5438 9.96677 23.668 9.18656 22.6499 8.63615C21.6318 8.08575 20.4994 7.78032 19.3426 7.74413C16.875 7.48511 14.4827 9.22072 13.2252 9.22072C11.9434 9.22072 10.0074 7.76984 7.92253 7.81274C6.57401 7.85631 5.25977 8.24845 4.10786 8.95095C2.95595 9.65346 2.00566 10.6424 1.34958 11.8213C-1.49243 16.7418 0.62745 23.9733 3.34986 27.9507C4.71194 29.8983 6.30382 32.0738 8.38676 31.9967C10.425 31.9121 11.1863 30.6969 13.6467 30.6969C16.0842 30.6969 16.7985 31.9967 18.9237 31.9476C21.1108 31.9121 22.4889 29.9914 23.8032 28.0253C24.7818 26.6376 25.5349 25.1038 26.0345 23.4809C24.7638 22.9434 23.6794 22.0438 22.9166 20.8942C22.1537 19.7447 21.7461 18.396 21.7446 17.0163Z" fill="white"/>
<path d="M17.7308 5.12947C18.9233 3.69787 19.5108 1.85779 19.3686 0C17.5466 0.191359 15.8637 1.06212 14.655 2.4388C14.0641 3.11134 13.6115 3.89375 13.3231 4.74131C13.0347 5.58888 12.9162 6.48497 12.9743 7.37836C13.8856 7.38774 14.7872 7.19022 15.6111 6.80068C16.435 6.41113 17.1597 5.83971 17.7308 5.12947Z" fill="white"/>
<path d="M54.45 23.4442H48.7699L47.4059 27.4719H45L50.3801 12.5703H52.8797L58.2598 27.4719H55.8129L54.45 23.4442ZM49.3582 21.5856H53.8606L51.6411 15.0489H51.579L49.3582 21.5856Z" fill="white"/>
<path d="M69.8795 22.0387C69.8795 25.4149 68.0725 27.584 65.3455 27.584C64.6548 27.6202 63.9678 27.4611 63.3632 27.1249C62.7587 26.7887 62.261 26.2891 61.9272 25.6832H61.8756V31.0645H59.6455V16.6059H61.8041V18.4129H61.8452C62.1943 17.81 62.7004 17.313 63.3095 16.9747C63.9187 16.6365 64.6081 16.4698 65.3045 16.4922C68.0619 16.4922 69.8795 18.6719 69.8795 22.0387ZM67.5873 22.0387C67.5873 19.8391 66.4506 18.393 64.7162 18.393C63.0123 18.393 61.8662 19.8696 61.8662 22.0387C61.8662 24.2278 63.0123 25.6938 64.7162 25.6938C66.4506 25.6938 67.5873 24.2583 67.5873 22.0387Z" fill="white"/>
<path d="M81.8366 22.0387C81.8366 25.4149 80.0295 27.584 77.3026 27.584C76.6118 27.6202 75.9248 27.461 75.3202 27.1249C74.7157 26.7887 74.218 26.2891 73.8842 25.6832H73.8326V31.0645H71.6025V16.6059H73.7611V18.4129H73.8021C74.1513 17.81 74.6574 17.3129 75.2665 16.9747C75.8757 16.6365 76.5651 16.4698 77.2615 16.4922C80.019 16.4922 81.8366 18.6719 81.8366 22.0387ZM79.5444 22.0387C79.5444 19.8391 78.4076 18.393 76.6733 18.393C74.9694 18.393 73.8233 19.8696 73.8233 22.0387C73.8233 24.2278 74.9694 25.6938 76.6733 25.6938C78.4077 25.6938 79.5444 24.2583 79.5444 22.0387H79.5444Z" fill="white"/>
<path d="M89.7399 23.3184C89.9051 24.7962 91.3407 25.7664 93.3024 25.7664C95.1821 25.7664 96.5344 24.7961 96.5344 23.4637C96.5344 22.307 95.7188 21.6145 93.7875 21.1399L91.8563 20.6746C89.12 20.0137 87.8496 18.734 87.8496 16.6574C87.8496 14.0863 90.0903 12.3203 93.2719 12.3203C96.4207 12.3203 98.5793 14.0863 98.652 16.6574H96.4008C96.266 15.1703 95.0367 14.2727 93.2402 14.2727C91.4438 14.2727 90.2145 15.1809 90.2145 16.5027C90.2145 17.5563 90.9996 18.1762 92.9203 18.6507L94.5621 19.0539C97.6195 19.7769 98.8899 21.0051 98.8899 23.1847C98.8899 25.9726 96.6691 27.7187 93.1371 27.7187C89.8324 27.7187 87.6012 26.0136 87.457 23.3183L89.7399 23.3184Z" fill="white"/>
<path d="M103.703 14.0352V16.6063H105.769V18.3723H103.703V24.3617C103.703 25.2922 104.117 25.7258 105.025 25.7258C105.27 25.7215 105.515 25.7043 105.759 25.6742V27.4296C105.35 27.5059 104.935 27.5405 104.52 27.5328C102.32 27.5328 101.462 26.7066 101.462 24.5996V18.3723H99.8828V16.6063H101.462V14.0352H103.703Z" fill="white"/>
<path d="M106.966 22.0391C106.966 18.6207 108.979 16.4727 112.119 16.4727C115.269 16.4727 117.272 18.6207 117.272 22.0391C117.272 25.4668 115.279 27.6055 112.119 27.6055C108.959 27.6055 106.966 25.4668 106.966 22.0391ZM115 22.0391C115 19.6941 113.926 18.3102 112.119 18.3102C110.312 18.3102 109.238 19.7047 109.238 22.0391C109.238 24.3934 110.312 25.7668 112.119 25.7668C113.926 25.7668 115 24.3934 115 22.0391H115Z" fill="white"/>
<path d="M119.11 16.6058H121.237V18.455H121.289C121.433 17.8775 121.771 17.3671 122.247 17.0096C122.723 16.6521 123.307 16.4694 123.902 16.4921C124.159 16.4912 124.415 16.5191 124.666 16.5753V18.6613C124.342 18.5621 124.003 18.5166 123.664 18.5265C123.34 18.5134 123.017 18.5705 122.717 18.6939C122.418 18.8174 122.148 19.0043 121.927 19.2418C121.707 19.4792 121.54 19.7617 121.439 20.0697C121.337 20.3777 121.304 20.704 121.34 21.0261V27.4703H119.11L119.11 16.6058Z" fill="white"/>
<path d="M134.949 24.2797C134.649 26.2519 132.728 27.6055 130.271 27.6055C127.11 27.6055 125.148 25.4879 125.148 22.0906C125.148 18.6828 127.121 16.4727 130.177 16.4727C133.183 16.4727 135.073 18.5375 135.073 21.8316V22.5957H127.4V22.7305C127.364 23.1303 127.414 23.5331 127.546 23.9121C127.679 24.2911 127.89 24.6377 128.166 24.9287C128.443 25.2198 128.778 25.4487 129.15 25.6003C129.521 25.7518 129.921 25.8226 130.322 25.8078C130.849 25.8572 131.378 25.7351 131.83 25.4598C132.282 25.1845 132.633 24.7706 132.831 24.2797L134.949 24.2797ZM127.41 21.0371H132.842C132.862 20.6776 132.807 20.3178 132.682 19.9804C132.556 19.6429 132.362 19.3351 132.112 19.0762C131.862 18.8172 131.561 18.6128 131.228 18.4758C130.895 18.3387 130.537 18.272 130.177 18.2797C129.814 18.2775 129.454 18.3473 129.118 18.485C128.782 18.6227 128.476 18.8256 128.219 19.0819C127.962 19.3383 127.758 19.643 127.619 19.9786C127.48 20.3142 127.409 20.674 127.41 21.0371V21.0371Z" fill="white"/>
<path d="M49.0785 1.35187C49.546 1.31832 50.0152 1.38896 50.4521 1.55868C50.8891 1.7284 51.2829 1.99297 51.6052 2.33332C51.9275 2.67367 52.1702 3.08131 52.3159 3.52684C52.4616 3.97236 52.5066 4.44467 52.4477 4.90968C52.4477 7.19718 51.2113 8.51208 49.0785 8.51208H46.4922V1.35187H49.0785ZM47.6043 7.49948H48.9543C49.2884 7.51945 49.6227 7.46467 49.933 7.33913C50.2432 7.21359 50.5216 7.02046 50.7477 6.77378C50.9739 6.5271 51.1423 6.23309 51.2405 5.91315C51.3387 5.5932 51.3644 5.25538 51.3156 4.92428C51.3609 4.59448 51.3326 4.25875 51.2329 3.94115C51.1331 3.62356 50.9644 3.33195 50.7387 3.08724C50.513 2.84252 50.236 2.65075 49.9275 2.52567C49.619 2.40058 49.2867 2.34528 48.9543 2.36373H47.6043V7.49948Z" fill="white"/>
<path d="M53.7044 5.80951C53.6705 5.45441 53.7111 5.09613 53.8237 4.75765C53.9363 4.41916 54.1184 4.10795 54.3583 3.84397C54.5983 3.58 54.8907 3.36908 55.217 3.22475C55.5432 3.08042 55.896 3.00586 56.2527 3.00586C56.6094 3.00586 56.9622 3.08042 57.2884 3.22475C57.6146 3.36908 57.9071 3.58 58.147 3.84397C58.3869 4.10795 58.5691 4.41916 58.6817 4.75765C58.7943 5.09613 58.8349 5.45441 58.8009 5.80951C58.8355 6.16498 58.7954 6.52376 58.6831 6.86279C58.5708 7.20182 58.3888 7.5136 58.1488 7.77809C57.9088 8.04259 57.6161 8.25395 57.2896 8.39859C56.963 8.54324 56.6098 8.61796 56.2527 8.61796C55.8955 8.61796 55.5423 8.54324 55.2158 8.39859C54.8892 8.25395 54.5966 8.04259 54.3566 7.77809C54.1166 7.5136 53.9346 7.20182 53.8223 6.86279C53.71 6.52376 53.6698 6.16498 53.7044 5.80951ZM57.704 5.80951C57.704 4.63823 57.1779 3.95327 56.2544 3.95327C55.3275 3.95327 54.806 4.63823 54.806 5.80953C54.806 6.99019 55.3275 7.66987 56.2544 7.66987C57.1779 7.66986 57.704 6.98549 57.704 5.80951H57.704Z" fill="white"/>
<path d="M65.575 8.51289H64.4687L63.352 4.5332H63.2676L62.1555 8.51289H61.0598L59.5703 3.10938H60.652L61.6199 7.23258H61.6996L62.8106 3.10938H63.8336L64.9445 7.23258H65.0289L65.9922 3.10938H67.0586L65.575 8.51289Z" fill="white"/>
<path d="M68.3115 3.10962H69.3381V3.96802H69.4178C69.553 3.65971 69.781 3.40127 70.07 3.2287C70.3591 3.05613 70.6947 2.97804 71.0303 3.00532C71.2932 2.98555 71.5572 3.02519 71.8027 3.12131C72.0482 3.21742 72.269 3.36755 72.4486 3.56056C72.6282 3.75357 72.7621 3.98453 72.8404 4.23631C72.9186 4.4881 72.9392 4.75426 72.9006 5.01508V8.51308H71.8342V5.28287C71.8342 4.41452 71.4568 3.98267 70.6682 3.98267C70.4897 3.97436 70.3115 4.00474 70.1458 4.07174C69.9801 4.13873 69.8309 4.24076 69.7084 4.37082C69.5858 4.50088 69.4928 4.6559 69.4358 4.82526C69.3788 4.99462 69.359 5.1743 69.3779 5.352V8.51314H68.3115L68.3115 3.10962Z" fill="white"/>
<path d="M74.5996 1H75.666V8.51289H74.5996V1Z" fill="white"/>
<path d="M77.1487 5.80961C77.1148 5.45449 77.1554 5.09619 77.2681 4.75769C77.3807 4.41919 77.5629 4.10797 77.8028 3.84399C78.0428 3.58 78.3352 3.36908 78.6615 3.22475C78.9877 3.08042 79.3405 3.00586 79.6973 3.00586C80.054 3.00586 80.4068 3.08042 80.7331 3.22475C81.0593 3.36908 81.3518 3.58 81.5917 3.84399C81.8317 4.10797 82.0138 4.41919 82.1265 4.75769C82.2391 5.09619 82.2798 5.45449 82.2458 5.80961C82.2804 6.16509 82.2402 6.52388 82.1279 6.8629C82.0155 7.20193 81.8335 7.51371 81.5935 7.7782C81.3535 8.04269 81.0608 8.25404 80.7342 8.39867C80.4076 8.54331 80.0544 8.61803 79.6973 8.61803C79.3401 8.61803 78.9869 8.54331 78.6604 8.39867C78.3338 8.25404 78.0411 8.04269 77.8011 7.7782C77.5611 7.51371 77.379 7.20193 77.2667 6.8629C77.1543 6.52388 77.1142 6.16509 77.1487 5.80961ZM81.1483 5.80961C81.1483 4.63833 80.6222 3.95337 79.6987 3.95337C78.7718 3.95337 78.2503 4.63833 78.2503 5.80963C78.2503 6.99029 78.7718 7.66997 79.6987 7.66997C80.6222 7.66996 81.1484 6.98559 81.1484 5.80961H81.1483Z" fill="white"/>
<path d="M83.3682 6.98554C83.3682 6.01288 84.0924 5.45214 85.3779 5.37245L86.8416 5.28808V4.82168C86.8416 4.25097 86.4643 3.92871 85.7354 3.92871C85.14 3.92871 84.7275 4.14726 84.6092 4.5293H83.5768C83.6857 3.60117 84.5588 3.00586 85.7846 3.00586C87.1393 3.00586 87.9033 3.68026 87.9033 4.82168V8.51367H86.8768V7.7543H86.7924C86.6211 8.02669 86.3806 8.24874 86.0955 8.3978C85.8103 8.54685 85.4907 8.61756 85.1693 8.60269C84.9425 8.62629 84.7132 8.60209 84.4963 8.53165C84.2794 8.46121 84.0797 8.3461 83.91 8.19374C83.7403 8.04138 83.6044 7.85514 83.5111 7.64704C83.4177 7.43895 83.3691 7.2136 83.3682 6.98554ZM86.8416 6.52382V6.07206L85.5221 6.15644C84.7779 6.20624 84.4404 6.45936 84.4404 6.93573C84.4404 7.42205 84.8623 7.70506 85.4424 7.70506C85.6124 7.72227 85.7841 7.7051 85.9473 7.65459C86.1105 7.60409 86.2619 7.52126 86.3924 7.41105C86.523 7.30084 86.63 7.1655 86.7072 7.01308C86.7843 6.86066 86.8301 6.69427 86.8416 6.52382Z" fill="white"/>
<path d="M89.3057 5.80881C89.3057 4.10139 90.1834 3.01974 91.5486 3.01974C91.8863 3.00418 92.2215 3.08507 92.5149 3.25294C92.8083 3.42081 93.0479 3.66874 93.2057 3.96774H93.2854V1H94.3518V8.51289H93.3299V7.65917H93.2455C93.0756 7.95616 92.8277 8.201 92.5286 8.36718C92.2294 8.53336 91.8906 8.61454 91.5486 8.60194C90.174 8.602 89.3057 7.52033 89.3057 5.80881ZM90.4073 5.80881C90.4073 6.9549 90.9475 7.64456 91.851 7.64456C92.7498 7.64456 93.3053 6.94495 93.3053 5.8135C93.3053 4.68732 92.744 3.97775 91.851 3.97775C90.9533 3.97775 90.4072 4.67208 90.4072 5.80881H90.4073Z" fill="white"/>
<path d="M98.763 5.80951C98.7291 5.45441 98.7697 5.09613 98.8823 4.75765C98.9949 4.41916 99.177 4.10795 99.4169 3.84397C99.6569 3.58 99.9493 3.36908 100.276 3.22475C100.602 3.08042 100.955 3.00586 101.311 3.00586C101.668 3.00586 102.021 3.08042 102.347 3.22475C102.673 3.36908 102.966 3.58 103.206 3.84397C103.446 4.10795 103.628 4.41916 103.74 4.75765C103.853 5.09613 103.893 5.45441 103.86 5.80951C103.894 6.16498 103.854 6.52376 103.742 6.86279C103.629 7.20182 103.447 7.5136 103.207 7.77809C102.967 8.04259 102.675 8.25395 102.348 8.39859C102.022 8.54324 101.668 8.61796 101.311 8.61796C100.954 8.61796 100.601 8.54324 100.274 8.39859C99.9478 8.25395 99.6552 8.04259 99.4152 7.77809C99.1752 7.5136 98.9932 7.20182 98.8809 6.86279C98.7685 6.52376 98.7284 6.16498 98.763 5.80951ZM102.763 5.80951C102.763 4.63823 102.236 3.95327 101.313 3.95327C100.386 3.95327 99.8646 4.63823 99.8646 5.80953C99.8646 6.99019 100.386 7.66987 101.313 7.66987C102.236 7.66986 102.763 6.98549 102.763 5.80951Z" fill="white"/>
<path d="M105.291 3.10962H106.318V3.96802H106.397C106.532 3.65971 106.76 3.40127 107.05 3.2287C107.339 3.05613 107.674 2.97804 108.01 3.00532C108.273 2.98555 108.537 3.02519 108.782 3.12131C109.028 3.21742 109.248 3.36755 109.428 3.56056C109.608 3.75357 109.742 3.98453 109.82 4.23631C109.898 4.4881 109.919 4.75426 109.88 5.01508V8.51308H108.814V5.28287C108.814 4.41452 108.436 3.98267 107.648 3.98267C107.469 3.97436 107.291 4.00474 107.125 4.07174C106.96 4.13873 106.81 4.24076 106.688 4.37082C106.565 4.50088 106.472 4.6559 106.415 4.82526C106.358 4.99462 106.339 5.1743 106.357 5.352V8.51314H105.291V3.10962Z" fill="white"/>
<path d="M115.906 1.76367V3.13359H117.077V4.03184H115.906V6.81035C115.906 7.37637 116.139 7.62422 116.67 7.62422C116.806 7.62378 116.942 7.61556 117.077 7.5996V8.48788C116.885 8.52214 116.691 8.54037 116.496 8.54237C115.311 8.54237 114.838 8.12518 114.838 7.08339V4.03179H113.98V3.13354H114.838V1.76367H115.906Z" fill="white"/>
<path d="M118.533 1H119.59V3.97774H119.675C119.816 3.66655 120.051 3.40665 120.345 3.23343C120.64 3.06021 120.981 2.98211 121.322 3.00977C121.584 2.99554 121.845 3.03921 122.088 3.13766C122.331 3.23611 122.549 3.38691 122.726 3.57932C122.904 3.77173 123.037 4.00099 123.116 4.25075C123.195 4.50051 123.218 4.76462 123.183 5.02422V8.5129H122.116V5.2873C122.116 4.42421 121.714 3.9871 120.96 3.9871C120.777 3.97207 120.593 3.99727 120.42 4.06093C120.247 4.12459 120.091 4.22519 119.961 4.35567C119.832 4.48616 119.732 4.64338 119.67 4.81635C119.607 4.98931 119.583 5.17384 119.6 5.35702V8.51288H118.533L118.533 1Z" fill="white"/>
<path d="M129.401 7.05477C129.256 7.54862 128.942 7.9758 128.514 8.26158C128.086 8.54736 127.571 8.67354 127.059 8.61805C126.703 8.62745 126.349 8.55926 126.022 8.41823C125.695 8.27719 125.403 8.06669 125.166 7.80132C124.928 7.53596 124.751 7.22209 124.647 6.8815C124.543 6.54092 124.514 6.18177 124.563 5.829C124.516 5.47513 124.545 5.11522 124.649 4.77361C124.752 4.432 124.928 4.11668 125.165 3.84899C125.401 3.58131 125.692 3.3675 126.018 3.22205C126.344 3.0766 126.697 3.00291 127.054 3.00595C128.558 3.00595 129.465 4.03315 129.465 5.72995V6.10206H125.649V6.16182C125.633 6.36011 125.658 6.55971 125.723 6.74781C125.788 6.93591 125.891 7.10836 126.027 7.25411C126.162 7.39985 126.326 7.51568 126.509 7.59416C126.692 7.67263 126.889 7.71203 127.088 7.70982C127.344 7.74044 127.602 7.69451 127.831 7.57786C128.06 7.46121 128.249 7.27912 128.374 7.05474L129.401 7.05477ZM125.649 5.31337H128.379C128.392 5.13202 128.367 4.94986 128.306 4.77859C128.245 4.60733 128.149 4.45076 128.024 4.31893C127.898 4.1871 127.747 4.08293 127.579 4.01312C127.411 3.94331 127.23 3.9094 127.049 3.91357C126.864 3.91125 126.681 3.94588 126.51 4.01541C126.339 4.08495 126.184 4.18798 126.054 4.31844C125.923 4.44889 125.82 4.60413 125.751 4.77501C125.682 4.94588 125.647 5.12893 125.649 5.31337H125.649Z" fill="white"/>
</svg>
