<svg width="146" height="34" viewBox="0 0 146 34" fill="none" xmlns="http://www.w3.org/2000/svg">
<path d="M51.6521 5.05312C51.6739 5.49345 51.6059 5.93361 51.4521 6.34681C51.2984 6.76001 51.0622 7.1376 50.7579 7.45659C50.4168 7.8103 50.0049 8.08802 49.5491 8.27159C49.0934 8.45515 48.604 8.54042 48.113 8.52182C47.6188 8.52625 47.1288 8.43185 46.6716 8.24418C46.2145 8.05651 45.7995 7.77935 45.451 7.429C45.1025 7.07865 44.8276 6.66217 44.6424 6.20404C44.4572 5.74592 44.3654 5.25539 44.3724 4.76128C44.3654 4.26716 44.4573 3.77663 44.6425 3.31849C44.8277 2.86036 45.1026 2.44386 45.4511 2.09347C45.7996 1.74308 46.2146 1.46587 46.6717 1.27811C47.1288 1.09036 47.6188 0.99585 48.113 1.00014C48.621 0.998604 49.124 1.10132 49.5907 1.30194C50.0243 1.47767 50.4101 1.75331 50.7169 2.10641L50.0841 2.73977C49.8429 2.45591 49.5397 2.23126 49.198 2.08314C48.8562 1.93502 48.485 1.8674 48.113 1.8855C47.7385 1.88356 47.3674 1.95722 47.0221 2.10207C46.6767 2.24693 46.3641 2.45999 46.1031 2.7285C45.842 2.99701 45.6378 3.31545 45.5028 3.66474C45.3677 4.01403 45.3045 4.38699 45.317 4.76128C45.308 5.32191 45.4658 5.87257 45.7702 6.34343C46.0747 6.81429 46.5121 7.18413 47.027 7.40607C47.5419 7.62801 48.1111 7.69205 48.6625 7.59005C49.2138 7.48806 49.7225 7.22464 50.1239 6.83319C50.4934 6.43508 50.7075 5.91749 50.7274 5.37472H48.113V4.50988H51.6017C51.6347 4.68909 51.6515 4.8709 51.6521 5.05312Z" fill="white" stroke="white" stroke-width="0.2" stroke-miterlimit="10"/>
<path d="M57.1829 2.04686H53.9041V4.32961H56.8608V5.19457H53.9041V7.47732H57.1829V8.36207H52.9795V1.16211H57.1829V2.04686Z" fill="white" stroke="white" stroke-width="0.2" stroke-miterlimit="10"/>
<path d="M61.0842 8.36207H60.1584V2.04686H58.1475V1.16211H63.0952V2.04686H61.0842V8.36207Z" fill="white" stroke="white" stroke-width="0.2" stroke-miterlimit="10"/>
<path d="M66.6758 8.36207V1.16211H67.6004V8.36207H66.6758Z" fill="white" stroke="white" stroke-width="0.2" stroke-miterlimit="10"/>
<path d="M71.7042 8.36207H70.7784V2.04686H68.7676V1.16211H73.7152V2.04686H71.7042V8.36207Z" fill="white" stroke="white" stroke-width="0.2" stroke-miterlimit="10"/>
<path d="M83.081 7.43065C82.3802 8.12934 81.431 8.52168 80.4414 8.52168C79.4518 8.52168 78.5025 8.12934 77.8017 7.43065C77.455 7.0795 77.1825 6.66222 77.0003 6.20362C76.8181 5.74502 76.73 5.25448 76.7412 4.76114C76.73 4.26781 76.8181 3.77726 77.0003 3.31866C77.1825 2.86006 77.455 2.44279 77.8017 2.09163C78.1481 1.74516 78.5594 1.47039 79.0121 1.28308C79.4649 1.09576 79.9501 0.999567 80.44 1C80.9299 1.00044 81.415 1.09749 81.8673 1.28561C82.3197 1.47373 82.7305 1.74922 83.0763 2.09631C83.4232 2.44654 83.6963 2.86289 83.8793 3.32065C84.0623 3.77841 84.1515 4.26826 84.1415 4.76114C84.1524 5.25444 84.0642 5.7449 83.882 6.20345C83.6998 6.662 83.4274 7.07932 83.081 7.43065ZM78.4849 6.82777C79.0039 7.34592 79.7074 7.63694 80.4408 7.63694C81.1742 7.63694 81.8776 7.34592 82.3966 6.82777C82.6628 6.55527 82.8709 6.23165 83.0085 5.87644C83.1461 5.52124 83.2102 5.14183 83.197 4.76114C83.2102 4.38045 83.1461 4.00105 83.0085 3.64584C82.8709 3.29064 82.6628 2.96701 82.3966 2.69451C81.8776 2.17636 81.1742 1.88534 80.4408 1.88534C79.7074 1.88534 79.0039 2.17636 78.4849 2.69451C78.2191 2.96722 78.0113 3.29092 77.8739 3.64609C77.7366 4.00126 77.6725 4.38056 77.6857 4.76114C77.6725 5.14172 77.7366 5.52102 77.8739 5.87619C78.0113 6.23137 78.2191 6.55506 78.4849 6.82777Z" fill="white" stroke="white" stroke-width="0.2" stroke-miterlimit="10"/>
<path d="M85.4395 8.36207V1.16211H86.5656L90.0648 6.76308H90.1047L90.0648 5.37553V1.16211H90.9906V8.36207H90.025L86.364 2.48978H86.3242L86.364 3.87734V8.36207H85.4395Z" fill="white" stroke="white" stroke-width="0.2" stroke-miterlimit="10"/>
<path d="M76.5131 18.8629C75.5045 18.8667 74.5196 19.1693 73.6828 19.7324C72.8461 20.2955 72.1949 21.094 71.8116 22.0269C71.4283 22.9598 71.33 23.9854 71.5291 24.9742C71.7282 25.963 72.2158 26.8706 72.9304 27.5824C73.6449 28.2942 74.5544 28.7784 75.5439 28.9738C76.5334 29.1691 77.5586 29.0669 78.4901 28.68C79.4215 28.2932 80.2175 27.639 80.7774 26.8001C81.3374 25.9612 81.6362 24.9752 81.6362 23.9666C81.6461 23.2919 81.5202 22.6222 81.266 21.9973C81.0118 21.3723 80.6345 20.8048 80.1566 20.3287C79.6786 19.8525 79.1097 19.4774 78.4838 19.2255C77.8578 18.9737 77.1877 18.8504 76.5131 18.8629ZM76.5131 27.0598C75.8919 27.1041 75.2718 26.9603 74.7335 26.6473C74.1952 26.3342 73.7636 25.8663 73.495 25.3045C73.2263 24.7427 73.133 24.1131 73.2272 23.4975C73.3214 22.882 73.5987 22.309 74.0231 21.8533C74.4475 21.3976 74.9993 21.0802 75.6066 20.9424C76.2139 20.8047 76.8486 20.853 77.428 21.081C78.0075 21.309 78.5049 21.7062 78.8555 22.2209C79.206 22.7355 79.3935 23.3438 79.3935 23.9666C79.4124 24.36 79.3524 24.7532 79.2169 25.123C79.0815 25.4929 78.8735 25.8319 78.6051 26.1201C78.3367 26.4083 78.0133 26.64 77.654 26.8014C77.2948 26.9627 76.9068 27.0506 76.5131 27.0598ZM65.3371 18.8629C64.3284 18.8667 63.3436 19.1692 62.5068 19.7323C61.67 20.2955 61.0188 21.0939 60.6355 22.0268C60.2521 22.9597 60.1538 23.9853 60.3529 24.9741C60.552 25.9629 61.0396 26.8705 61.7542 27.5823C62.4687 28.2942 63.3782 28.7784 64.3677 28.9737C65.3572 29.1691 66.3824 29.0669 67.3139 28.68C68.2454 28.2932 69.0413 27.639 69.6013 26.8001C70.1612 25.9612 70.4601 24.9752 70.4601 23.9666C70.47 23.292 70.3441 22.6222 70.0899 21.9973C69.8357 21.3723 69.4584 20.8049 68.9804 20.3287C68.5025 19.8526 67.9336 19.4774 67.3077 19.2256C66.6818 18.9737 66.0116 18.8504 65.3371 18.8629ZM65.3371 27.0598C64.7159 27.1041 64.0958 26.9603 63.5575 26.6473C63.0192 26.3342 62.5876 25.8663 62.319 25.3045C62.0503 24.7427 61.957 24.1131 62.0512 23.4975C62.1454 22.882 62.4227 22.309 62.8471 21.8533C63.2715 21.3976 63.8232 21.0802 64.4305 20.9424C65.0378 20.8047 65.6725 20.853 66.252 21.081C66.8315 21.309 67.3289 21.7062 67.6794 22.2209C68.03 22.7355 68.2175 23.3438 68.2175 23.9666C68.2364 24.36 68.1763 24.7532 68.0409 25.123C67.9055 25.4929 67.6975 25.8319 67.4291 26.1201C67.1607 26.4084 66.8373 26.64 66.478 26.8014C66.1187 26.9627 65.7308 27.0506 65.3371 27.0598ZM52.0426 20.4289V22.594H57.2238C57.149 23.6096 56.7334 24.5701 56.0444 25.3199C55.5252 25.8491 54.9008 26.2636 54.2115 26.5367C53.5222 26.8097 52.7833 26.9352 52.0426 26.9051C50.5281 26.8846 49.0827 26.2686 48.019 25.1904C46.9553 24.1122 46.359 22.6586 46.359 21.144C46.359 19.6295 46.9553 18.1758 48.019 17.0977C49.0827 16.0195 50.5281 15.4035 52.0426 15.383C53.4972 15.364 54.9006 15.9198 55.9478 16.9295L57.4751 15.4023C56.7605 14.6949 55.912 14.1373 54.9791 13.7622C54.0463 13.3871 53.0479 13.202 52.0426 13.2177C50.9919 13.2024 49.9488 13.3962 48.9737 13.7876C47.9986 14.1791 47.1111 14.7605 46.3628 15.498C45.6144 16.2356 45.0201 17.1145 44.6145 18.0838C44.2089 19.0531 44 20.0933 44 21.144C44 22.1948 44.2089 23.235 44.6145 24.2043C45.0201 25.1735 45.6144 26.0525 46.3628 26.79C47.1111 27.5276 47.9986 28.109 48.9737 28.5005C49.9488 28.8919 50.9919 29.0857 52.0426 29.0704C53.0691 29.1129 54.093 28.9367 55.0462 28.5534C55.9995 28.1701 56.8603 27.5885 57.5717 26.8471C58.8345 25.4687 59.5077 23.6506 59.447 21.7821C59.452 21.3283 59.4131 20.8751 59.3308 20.4289H52.0426ZM106.412 22.1106C106.106 21.1862 105.522 20.3786 104.74 19.7975C103.958 19.2165 103.017 18.8901 102.043 18.8629C101.387 18.8669 100.739 19.0039 100.138 19.2656C99.5366 19.5272 98.9946 19.9081 98.5446 20.3851C98.0947 20.8622 97.7462 21.4255 97.5201 22.0411C97.294 22.6567 97.1952 23.3117 97.2294 23.9666C97.2146 24.6376 97.3353 25.3047 97.5841 25.928C97.8329 26.5514 98.2048 27.1182 98.6776 27.5946C99.1504 28.071 99.7143 28.4472 100.336 28.7008C100.957 28.9543 101.623 29.08 102.294 29.0704C103.135 29.075 103.964 28.8708 104.706 28.476C105.449 28.0812 106.081 27.5082 106.547 26.8085L104.808 25.6486C104.547 26.0815 104.178 26.4391 103.738 26.6865C103.297 26.9339 102.8 27.0626 102.294 27.0598C101.775 27.0797 101.261 26.9428 100.819 26.6671C100.378 26.3913 100.03 25.9893 99.8198 25.5132L106.644 22.6907L106.412 22.1106ZM99.4526 23.812C99.4286 23.4405 99.4789 23.068 99.6006 22.7162C99.7223 22.3644 99.9129 22.0404 100.161 21.7632C100.41 21.486 100.711 21.2611 101.047 21.1016C101.384 20.9422 101.748 20.8515 102.12 20.8348C102.508 20.8093 102.894 20.8984 103.231 21.0909C103.568 21.2835 103.84 21.5709 104.015 21.9174L99.4526 23.812ZM93.9041 28.761H96.1467V13.7592H93.9041V28.761ZM90.2309 20.0035H90.1537C89.8127 19.633 89.3966 19.3397 88.9332 19.143C88.4698 18.9463 87.9697 18.8508 87.4664 18.8629C86.1504 18.9189 84.9068 19.4811 83.9954 20.4321C83.084 21.3831 82.5752 22.6494 82.5752 23.9666C82.5752 25.2838 83.084 26.5501 83.9954 27.5011C84.9068 28.4522 86.1504 29.0144 87.4664 29.0704C87.9717 29.0838 88.4738 28.987 88.9379 28.7867C89.402 28.5864 89.8169 28.2874 90.1537 27.9105H90.2309V28.6451C90.2309 30.5977 89.1871 31.6416 87.505 31.6416C86.9445 31.6282 86.4006 31.4482 85.9427 31.1245C85.4848 30.8009 85.1336 30.3483 84.9339 29.8243L82.9813 30.6364C83.3493 31.5324 83.9765 32.2981 84.7824 32.8354C85.5884 33.3727 86.5364 33.6571 87.505 33.6522C90.1343 33.6522 92.3576 32.1056 92.3576 28.3357V19.1721H90.2309V20.0035ZM87.6598 27.0598C86.8847 26.9941 86.1625 26.6397 85.6362 26.0669C85.1099 25.4941 84.8178 24.7445 84.8178 23.9666C84.8178 23.1887 85.1099 22.4392 85.6362 21.8663C86.1625 21.2935 86.8847 20.9392 87.6598 20.8734C88.0454 20.8923 88.4233 20.9886 88.771 21.1565C89.1186 21.3245 89.4288 21.5608 89.6832 21.8512C89.9376 22.1417 90.1308 22.4804 90.2515 22.8471C90.3722 23.2139 90.4178 23.6011 90.3856 23.9859C90.4158 24.3682 90.3685 24.7527 90.2466 25.1164C90.1247 25.4801 89.9308 25.8154 89.6763 26.1024C89.4218 26.3893 89.1121 26.622 88.7656 26.7865C88.4191 26.951 88.043 27.044 87.6598 27.0598ZM116.917 13.7594H111.551V28.761H113.79V23.0774H116.917C117.55 23.1121 118.184 23.0173 118.779 22.7989C119.375 22.5804 119.919 22.2429 120.38 21.8068C120.841 21.3708 121.208 20.8454 121.458 20.2628C121.709 19.6802 121.838 19.0526 121.838 18.4184C121.838 17.7841 121.709 17.1565 121.458 16.5739C121.208 15.9913 120.841 15.466 120.38 15.0299C119.919 14.5939 119.375 14.2563 118.779 14.0379C118.184 13.8194 117.55 13.7247 116.917 13.7594ZM116.975 20.9896H113.79V15.8473H116.975C117.317 15.8402 117.657 15.9014 117.975 16.0275C118.293 16.1535 118.583 16.3418 118.828 16.5812C119.072 16.8207 119.266 17.1065 119.399 17.422C119.531 17.7375 119.6 18.0762 119.6 18.4184C119.6 18.7606 119.531 19.0994 119.399 19.4149C119.266 19.7304 119.072 20.0162 118.828 20.2557C118.583 20.4951 118.293 20.6834 117.975 20.8094C117.657 20.9354 117.317 20.9967 116.975 20.9896ZM130.813 18.8353C129.995 18.7875 129.182 18.9795 128.472 19.3874C127.763 19.7954 127.188 20.4017 126.818 21.1319L128.805 21.9618C129.003 21.5994 129.301 21.3023 129.664 21.1069C130.028 20.9115 130.44 20.8263 130.851 20.8617C131.419 20.8062 131.986 20.9782 132.427 21.34C132.869 21.7018 133.149 22.2238 133.206 22.7916V22.9461C132.487 22.5641 131.685 22.3652 130.871 22.3671C128.728 22.3671 126.547 23.5444 126.547 25.7446C126.568 26.2083 126.682 26.6631 126.882 27.0819C127.082 27.5008 127.364 27.8753 127.711 28.1831C128.059 28.4909 128.464 28.7258 128.904 28.8738C129.344 29.0218 129.809 29.08 130.272 29.0448C130.836 29.078 131.398 28.9594 131.901 28.7015C132.403 28.4435 132.827 28.0556 133.129 27.5781H133.206V28.736H135.367V22.9847C135.367 20.3213 133.379 18.8353 130.813 18.8353ZM130.542 27.0569C129.809 27.0569 128.786 26.6903 128.786 25.7831C128.786 24.6252 130.06 24.1812 131.16 24.1812C131.875 24.1622 132.581 24.3355 133.206 24.6831C133.124 25.3338 132.809 25.9327 132.319 26.369C131.829 26.8054 131.198 27.0498 130.542 27.0569ZM143.242 19.1633L140.675 25.6673H140.598L137.934 19.1633H135.522L139.517 28.2535L137.24 33.3101H139.575L145.731 19.1633H143.242ZM123.073 28.761H125.312V13.7594H123.073V28.761Z" fill="white"/>
<path d="M21.209 22.3194L16.0752 17.1831V16.8197L21.2103 11.6846L21.326 11.7506L27.409 15.2069C29.1465 16.1941 29.1465 17.8093 27.409 18.797L21.326 22.2534L21.209 22.3194Z" fill="url(#paint0_linear)"/>
<path opacity="0.2" d="M21.2097 22.1357L3.16366 32.3891C2.80612 32.6613 2.36975 32.8098 1.9204 32.8122C1.47106 32.8146 1.03312 32.6708 0.6727 32.4024L0.580078 32.4951L0.672079 32.5847L0.6727 32.5841C1.03306 32.8526 1.47102 32.9965 1.92041 32.9941C2.36979 32.9917 2.80619 32.8431 3.16366 32.5708L21.3254 22.2514L21.2097 22.1357Z" fill="black"/>
<path opacity="0.12" d="M0.579864 32.314C0.172226 31.8266 -0.0336182 31.2017 0.00448993 30.5674V30.749C-0.0336411 31.3833 0.172205 32.0082 0.579864 32.4957L0.672485 32.403L0.579864 32.314Z" fill="black"/>
<path d="M0.579891 1.50725C0.172215 1.99469 -0.0336341 2.61958 0.0045185 3.25388V30.7496C-0.033745 31.3839 0.172117 32.0088 0.579891 32.4962L0.671892 32.5858L16.0744 17.1834V16.82L0.671892 1.41699L0.579891 1.50725Z" fill="url(#paint1_linear)"/>
<path d="M21.3254 22.2513L16.0746 17L0.580078 32.4944C0.934115 32.8067 1.38623 32.9852 1.85808 32.9992C2.32994 33.0131 2.79181 32.8615 3.16366 32.5707L21.3254 22.2513Z" fill="url(#paint2_linear)"/>
<path d="M21.3254 11.7487L3.16366 1.4293C2.79181 1.1385 2.32994 0.986941 1.85808 1.00088C1.38623 1.01482 0.934115 1.19339 0.580078 1.50564L16.0746 17.0002L21.3254 11.7487Z" fill="url(#paint3_linear)"/>
<path opacity="0.12" d="M27.4086 18.6148L21.21 22.1372L21.3257 22.2528L27.4086 18.7965C27.7665 18.6412 28.0761 18.3928 28.3053 18.0772C28.5346 17.7616 28.675 17.3903 28.7119 17.002C28.635 17.3536 28.4772 17.6825 28.251 17.9624C28.0247 18.2424 27.7363 18.4658 27.4086 18.6148Z" fill="black"/>
<path opacity="0.25" d="M3.16286 1.61185L27.4076 15.387C27.7354 15.536 28.0239 15.7594 28.2501 16.0395C28.4764 16.3196 28.6341 16.6487 28.7109 17.0005C28.6742 16.612 28.5339 16.2405 28.3046 15.9248C28.0754 15.609 27.7656 15.3606 27.4076 15.2053L3.16286 1.43022C1.42531 0.442958 0.00390625 1.263 0.00390625 3.25318V3.43482C0.00390625 1.44476 1.42531 0.62472 3.16286 1.61185Z" fill="white"/>
<defs>
<linearGradient id="paint0_linear" x1="29.6713" y1="17.002" x2="-0.411346" y2="17.002" gradientUnits="userSpaceOnUse">
<stop stop-color="#FFE000"/>
<stop offset="0.4087" stop-color="#FFBD00"/>
<stop offset="0.7754" stop-color="#FFA500"/>
<stop offset="1" stop-color="#FF9C00"/>
</linearGradient>
<linearGradient id="paint1_linear" x1="14.7085" y1="2.96397" x2="-6.15608" y2="23.8286" gradientUnits="userSpaceOnUse">
<stop stop-color="#00A0FF"/>
<stop offset="0.00657" stop-color="#00A1FF"/>
<stop offset="0.2601" stop-color="#00BEFF"/>
<stop offset="0.5122" stop-color="#00D2FF"/>
<stop offset="0.7604" stop-color="#00DFFF"/>
<stop offset="1" stop-color="#00E3FF"/>
</linearGradient>
<linearGradient id="paint2_linear" x1="18.4723" y1="19.8534" x2="-9.8218" y2="48.1474" gradientUnits="userSpaceOnUse">
<stop stop-color="#FF3A44"/>
<stop offset="1" stop-color="#C31162"/>
</linearGradient>
<linearGradient id="paint3_linear" x1="-3.3213" y1="-7.64689" x2="9.31318" y2="4.98759" gradientUnits="userSpaceOnUse">
<stop stop-color="#32A071"/>
<stop offset="0.0685" stop-color="#2DA771"/>
<stop offset="0.4762" stop-color="#15CF74"/>
<stop offset="0.8009" stop-color="#06E775"/>
<stop offset="1" stop-color="#00F076"/>
</linearGradient>
</defs>
</svg>
