
<svg width="13" height="13" viewBox="0 0 13 13" fill="none" xmlns="http://www.w3.org/2000/svg">
<path d="M10.5895 10.0743L10.0938 11.9243C10.0583 12.0568 9.97397 12.1709 9.8577 12.2436C9.74142 12.3163 9.60189 12.3422 9.46727 12.3161C9.23442 12.2705 9.04539 12.2289 8.90099 12.1902C4.27738 10.9513 1.53384 6.19932 2.77273 1.57572C2.81142 1.43131 2.86932 1.24663 2.9468 1.02233C2.99148 0.892676 3.08368 0.784794 3.20479 0.720454C3.32589 0.656113 3.4669 0.640105 3.59935 0.675659L5.44942 1.17138C5.51433 1.18871 5.57049 1.22954 5.60699 1.28596C5.64348 1.34237 5.6577 1.41033 5.64689 1.47664C5.62668 1.60021 5.61201 1.6989 5.60299 1.77443C5.51253 2.52794 5.53651 3.2908 5.67411 4.03715C5.69578 4.15511 5.62983 4.27146 5.51771 4.3132L4.17244 4.81745C4.43177 6.61101 5.3702 8.23641 6.79381 9.35778L7.90152 8.44669C7.9468 8.40947 8.00369 8.38932 8.0623 8.38975C8.1209 8.39019 8.1775 8.41117 8.22221 8.44906C8.79985 8.94079 9.44847 9.3424 10.1461 9.6403C10.216 9.67025 10.3087 9.70742 10.4249 9.75089C10.4876 9.77478 10.5392 9.8211 10.5697 9.88087C10.6002 9.94064 10.6075 10.0096 10.59 10.0744L10.5895 10.0743Z" fill="#8867AF"/>
</svg>
