<svg width="18" height="18" viewBox="0 0 18 18" fill="none" xmlns="http://www.w3.org/2000/svg">
<path d="M16.0728 7.87508C14.5622 7.88521 13.368 9.47149 12.8713 10.5265C12.4977 11.3211 12.6735 11.9669 13.3682 12.6015C13.4204 12.6481 13.488 12.6437 13.5628 12.6584C13.6377 12.673 13.6746 12.6606 13.7664 12.6525C13.7909 12.656 13.8171 12.6549 13.8456 12.6442C13.8529 12.6407 13.8644 12.6344 13.8738 12.6297C13.8765 12.6283 13.8798 12.6281 13.8818 12.6274C13.8864 12.6252 13.8861 12.6228 13.8912 12.6208C14.1653 12.4569 14.9876 11.6229 14.8233 11.3712C14.7505 11.2585 14.734 11.2117 14.6171 11.1465C14.1554 10.8863 14.3127 10.6223 14.6036 10.2973C14.9767 9.87934 15.3503 9.19675 15.9923 9.73791C16.0363 9.77649 16.1039 9.77776 16.1547 9.76604C16.5655 9.66299 17.2396 9.21196 17.3814 8.71628C17.5422 8.1421 16.5706 7.87235 16.0728 7.87508Z" fill="#390179"/>
<path d="M11.4277 13.2274H4.54949C-0.157537 12.8951 0.56635 6.91315 5.6344 7.57776C4.18637 5.58592 7.80636 1.93159 10.7023 5.58632C11.4263 3.92495 15.046 2.92998 16.4943 5.91856" stroke="#390179" stroke-width="1.2"/>
</svg>
