<svg width="24" height="24" viewBox="0 0 24 24" fill="none" xmlns="http://www.w3.org/2000/svg">
<path d="M4.71094 20.25H19.2891C20.8399 20.25 22.1016 18.9883 22.1016 17.4375V2.8125C22.1016 1.26169 20.8399 0 19.2891 0H4.71094C3.16013 0 1.89844 1.26169 1.89844 2.8125V21.1875C1.89844 22.7383 3.16013 24 4.71094 24H18.3516H19.2891C20.8399 24 22.1016 22.7383 22.1016 21.1875V21.1852C21.3176 21.775 20.3435 22.125 19.2891 22.125H18.3516H4.71094C4.194 22.125 3.77344 21.7044 3.77344 21.1875C3.77344 20.6706 4.194 20.25 4.71094 20.25ZM3.77344 2.8125C3.77344 2.29556 4.194 1.875 4.71094 1.875H19.2891C19.806 1.875 20.2266 2.29556 20.2266 2.8125V17.4375C20.2266 17.9544 19.806 18.375 19.2891 18.375H4.71094C4.38239 18.375 4.06678 18.4316 3.77344 18.5356V2.8125ZM11.9297 11.625C14.0233 11.625 15.7266 13.3282 15.7266 15.4219H17.6016C17.6016 13.2036 16.3214 11.2791 14.4612 10.3473C14.9274 9.77447 15.2076 9.04444 15.2076 8.25C15.2076 6.41489 13.7146 4.92188 11.8795 4.92188C10.0444 4.92188 8.55136 6.41489 8.55136 8.25C8.55136 9.06117 8.84339 9.80517 9.32742 10.3832C7.50558 11.328 6.25781 13.2319 6.25781 15.4219H8.13281C8.13281 13.3282 9.83611 11.625 11.9297 11.625ZM11.8795 6.79688C12.6808 6.79688 13.3326 7.44877 13.3326 8.25C13.3326 9.05123 12.6808 9.70312 11.8795 9.70312C11.0782 9.70312 10.4264 9.05123 10.4264 8.25C10.4264 7.44877 11.0782 6.79688 11.8795 6.79688Z" fill="#2C0068"/>
</svg>
