<svg width="26" height="26" viewBox="0 0 26 26" fill="none" xmlns="http://www.w3.org/2000/svg">
<path d="M23.8009 19.8573C23.8009 20.2473 23.7142 20.6482 23.5301 21.0382C23.3459 21.4282 23.1076 21.7965 22.7934 22.1432C22.2626 22.7282 21.6776 23.1507 21.0167 23.4215C20.3667 23.6923 19.6626 23.8332 18.9042 23.8332C17.7992 23.8332 16.6184 23.5732 15.3726 23.0423C14.1267 22.5115 12.8809 21.7965 11.6459 20.8973C10.4001 19.9873 9.21925 18.9798 8.09258 17.864C6.97675 16.7373 5.96925 15.5565 5.07008 14.3215C4.18175 13.0865 3.46675 11.8515 2.94675 10.6273C2.42675 9.39234 2.16675 8.2115 2.16675 7.08484C2.16675 6.34817 2.29675 5.644 2.55675 4.994C2.81675 4.33317 3.22841 3.7265 3.80258 3.18484C4.49591 2.50234 5.25425 2.1665 6.05592 2.1665C6.35925 2.1665 6.66258 2.2315 6.93341 2.3615C7.21508 2.4915 7.46425 2.6865 7.65925 2.96817L10.1726 6.51067C10.3676 6.7815 10.5084 7.03067 10.6059 7.269C10.7034 7.4965 10.7576 7.724 10.7576 7.92984C10.7576 8.18984 10.6817 8.44984 10.5301 8.699C10.3892 8.94817 10.1834 9.20817 9.92341 9.46817L9.10008 10.324C8.98091 10.4432 8.92675 10.584 8.92675 10.7573C8.92675 10.844 8.93758 10.9198 8.95925 11.0065C8.99175 11.0932 9.02425 11.1582 9.04592 11.2232C9.24092 11.5807 9.57675 12.0465 10.0534 12.6098C10.5409 13.1732 11.0609 13.7473 11.6242 14.3215C12.2092 14.8957 12.7726 15.4265 13.3467 15.914C13.9101 16.3907 14.3759 16.7157 14.7442 16.9107C14.7984 16.9323 14.8634 16.9648 14.9392 16.9973C15.0259 17.0298 15.1126 17.0407 15.2101 17.0407C15.3942 17.0407 15.5351 16.9757 15.6542 16.8565L16.4776 16.044C16.7484 15.7732 17.0084 15.5673 17.2576 15.4373C17.5067 15.2857 17.7559 15.2098 18.0267 15.2098C18.2326 15.2098 18.4492 15.2532 18.6876 15.3507C18.9259 15.4482 19.1751 15.589 19.4459 15.7732L23.0317 18.319C23.3134 18.514 23.5084 18.7415 23.6276 19.0123C23.7359 19.2832 23.8009 19.554 23.8009 19.8573Z" stroke="#08278D" stroke-width="1.5" stroke-miterlimit="10"/>
<path d="M20.0417 9.75016C20.0417 9.10016 19.5325 8.1035 18.7742 7.291C18.0808 6.5435 17.16 5.9585 16.25 5.9585" stroke="#08278D" stroke-width="1.5" stroke-linecap="round" stroke-linejoin="round"/>
<path d="M23.8333 9.74984C23.8333 5.55734 20.4425 2.1665 16.25 2.1665" stroke="#08278D" stroke-width="1.5" stroke-linecap="round" stroke-linejoin="round"/>
</svg>
