<svg width="24" height="24" viewBox="0 0 24 24" fill="none" xmlns="http://www.w3.org/2000/svg">
<path d="M3.75 9.74991H18.4395L17.0947 11.0947C16.8019 11.3875 16.8019 11.8623 17.0947 12.1552C17.2414 12.3018 17.433 12.3749 17.625 12.3749C17.817 12.3749 18.0086 12.3018 18.1553 12.1552L20.7803 9.53016C21.0731 9.23729 21.0731 8.76254 20.7803 8.46966L18.1553 5.84466C17.8624 5.55178 17.3876 5.55178 17.0947 5.84466C16.8019 6.13753 16.8019 6.61228 17.0947 6.90516L18.4395 8.24991H3.75C3.336 8.24991 3 8.58591 3 8.99991C3 9.41391 3.336 9.74991 3.75 9.74991Z" fill="#2C0068"/>
<path d="M20.2501 14.2499H5.56065L6.9054 12.9052C7.19827 12.6123 7.19827 12.1375 6.9054 11.8447C6.6129 11.5518 6.1374 11.5518 5.8449 11.8447L3.2199 14.4697C2.92703 14.7625 2.92703 15.2373 3.2199 15.5302L5.8449 18.1552C5.99115 18.3018 6.18315 18.3749 6.37515 18.3749C6.56715 18.3749 6.75915 18.3018 6.9054 18.1552C7.19827 17.8623 7.19827 17.3875 6.9054 17.0947L5.56065 15.7499H20.2501C20.6641 15.7499 21.0001 15.4139 21.0001 14.9999C21.0001 14.5859 20.6641 14.2499 20.2501 14.2499Z" fill="#2C0068"/>
</svg>
