<svg width="24" height="24" viewBox="0 0 24 24" fill="none" xmlns="http://www.w3.org/2000/svg">
<g clip-path="url(#clip0)">
<path d="M16.9117 0.643458C16.8547 0.255007 16.5128 -0.0329563 16.1168 0.00303908C14.7295 0.100527 13.1577 0.955418 12.2083 2.12827C11.1749 3.40011 10.7025 4.95841 10.9455 6.29774C11.0085 6.6457 11.3069 6.90216 11.6594 6.91416C11.6999 6.91566 11.7389 6.91566 11.7794 6.91566C13.2057 6.91566 14.728 6.11776 15.6879 4.85792C16.6688 3.58008 17.1142 2.04428 16.9117 0.643458ZM14.497 3.94754L14.4955 3.94904C13.9616 4.64945 13.1727 5.15938 12.3913 5.34236C12.4633 4.48297 12.9072 3.64458 13.3722 3.07315C13.8806 2.44623 14.6725 1.9198 15.4464 1.66183C15.3429 2.72519 14.779 3.58158 14.497 3.94754Z" fill="#2C0068"/>
<path d="M22.1956 16.971C22.1161 16.7806 21.9646 16.6336 21.7726 16.5586C20.2488 15.9707 19.2259 14.5609 19.1075 12.8781C18.992 11.2253 19.7824 9.75846 21.2237 8.95456C21.4157 8.84808 21.5521 8.6636 21.5941 8.44763C21.6361 8.23166 21.5836 8.00818 21.4472 7.83571C20.1798 6.22941 18.371 5.26953 16.6088 5.26953C15.3819 5.26953 14.521 5.60099 13.8281 5.86796C13.2942 6.07343 12.8742 6.23541 12.3838 6.23541C11.8349 6.23541 11.3204 6.04793 10.725 5.83196C10.0021 5.56949 9.18171 5.27253 8.14684 5.27253C6.1476 5.27253 4.12585 6.49338 2.87051 8.45813C0.986753 11.4143 1.52219 16.5091 4.14535 20.5721C5.16822 22.1589 6.59454 23.9827 8.57579 24.0007C8.58779 24.0007 8.60129 24.0007 8.61478 24.0007C9.43518 24.0007 10.0021 23.7427 10.503 23.5162C11.0265 23.2792 11.5199 23.0543 12.4078 23.0483C13.2507 23.0228 13.7771 23.2687 14.2886 23.5072C14.788 23.7412 15.3699 23.9932 16.1948 23.9962C18.1221 23.9812 19.5514 22.1679 20.6958 20.3951C21.3887 19.3212 21.6556 18.7648 22.1881 17.562C22.2721 17.3745 22.2751 17.16 22.1956 16.971ZM19.4374 19.5822C18.5645 20.935 17.4052 22.4873 16.1828 22.4978C15.7029 22.4873 15.3639 22.3554 14.9245 22.1499C14.3456 21.8799 13.6181 21.5665 12.4003 21.5515C11.1915 21.5575 10.467 21.8859 9.88362 22.1514C9.42918 22.3554 9.10072 22.4723 8.58929 22.5008C7.32495 22.4888 6.22409 21.031 5.40519 19.7592C2.80302 15.7277 2.80752 11.3438 4.13335 9.26502C5.11573 7.72772 6.65303 6.77234 8.14534 6.77234C8.91625 6.77234 9.54617 7.00181 10.2151 7.24328C10.8825 7.48475 11.5724 7.73522 12.3853 7.73522C13.1532 7.73522 13.7711 7.49675 14.3681 7.26728C15.004 7.02281 15.6609 6.76934 16.6103 6.76934C17.6886 6.76934 18.809 7.27778 19.7209 8.15816C18.2526 9.30552 17.4757 11.0513 17.6121 12.9846C17.7531 14.9823 18.845 16.6981 20.5188 17.625C20.1888 18.3419 19.9353 18.8098 19.4374 19.5822Z" fill="#2C0068"/>
</g>
<defs>
<clipPath id="clip0">
<rect width="24" height="24" fill="white"/>
</clipPath>
</defs>
</svg>
