<svg width="24" height="24" viewBox="0 0 24 24" fill="none" xmlns="http://www.w3.org/2000/svg">
<path d="M12.485 3.12055L20.243 5.06055C20.688 5.17055 21 5.57055 21 6.03055V6.99955H22C23.1 6.99955 24 7.89955 24 8.99955V11.9995C24 12.7952 23.6839 13.5583 23.1213 14.1209C22.5587 14.6835 21.7956 14.9995 21 14.9995H20.579C20.0352 16.3727 19.0041 17.4971 17.683 18.1575L12.894 20.5525C12.6164 20.6911 12.3103 20.7632 12 20.7632C11.6897 20.7632 11.3836 20.6911 11.106 20.5525L6.316 18.1575C4.99592 17.4964 3.96566 16.3722 3.422 14.9995H3C2.20435 14.9995 1.44129 14.6835 0.87868 14.1209C0.31607 13.5583 0 12.7952 0 11.9995L0 8.99955C0 8.46911 0.210714 7.96041 0.585786 7.58533C0.960859 7.21026 1.46957 6.99955 2 6.99955H3V6.02955C3 5.57155 3.312 5.17155 3.757 5.05955L11.515 3.12055C11.833 3.04055 12.167 3.04055 12.485 3.12055ZM12 5.06055L5 6.81055V12.7905C5 14.3065 5.856 15.6905 7.211 16.3695L12 18.7635L16.789 16.3695C17.4534 16.0372 18.0121 15.5265 18.4026 14.8945C18.7931 14.2626 19 13.5344 19 12.7915V6.81155L12 5.06155V5.06055ZM3 8.99955H2V11.9995C2 12.2648 2.10536 12.5191 2.29289 12.7067C2.48043 12.8942 2.73478 12.9995 3 12.9995V8.99955ZM22 8.99955H21V12.9995C21.2652 12.9995 21.5196 12.8942 21.7071 12.7067C21.8946 12.5191 22 12.2648 22 11.9995V8.99955Z" fill="#390179"/>
</svg>
