<svg width="26" height="26" viewBox="0 0 26 26" fill="none" xmlns="http://www.w3.org/2000/svg">
<path d="M18.4167 5.4165H7.58341C4.33341 5.4165 2.16675 7.58317 2.16675 10.8332V18.4165C2.16675 21.6665 4.33341 23.8332 7.58341 23.8332H18.4167C21.6667 23.8332 23.8334 21.6665 23.8334 18.4165V10.8332C23.8334 7.58317 21.6667 5.4165 18.4167 5.4165Z" stroke="#08278D" stroke-width="1.5" stroke-linecap="round" stroke-linejoin="round"/>
<path d="M7.58325 2.1665V5.4165" stroke="#08278D" stroke-width="1.5" stroke-linecap="round" stroke-linejoin="round"/>
<path d="M9.20833 17.3332C10.7041 17.3332 11.9167 16.1206 11.9167 14.6248C11.9167 13.1291 10.7041 11.9165 9.20833 11.9165C7.71256 11.9165 6.5 13.1291 6.5 14.6248C6.5 16.1206 7.71256 17.3332 9.20833 17.3332Z" stroke="#08278D" stroke-width="1.5" stroke-linecap="round" stroke-linejoin="round"/>
<path d="M15.7083 11.9165H20.0416" stroke="#08278D" stroke-width="1.5" stroke-linecap="round" stroke-linejoin="round"/>
<path d="M15.7083 16.25H16.2499" stroke="#08278D" stroke-width="1.5" stroke-linecap="round" stroke-linejoin="round"/>
<path d="M19.5 16.25H20.0417" stroke="#08278D" stroke-width="1.5" stroke-linecap="round" stroke-linejoin="round"/>
</svg>
