
<svg width="12" height="13" viewBox="0 0 12 13" fill="none" xmlns="http://www.w3.org/2000/svg">
<path d="M11.2218 6.04431C11.2218 9.0978 8.8322 11.5443 5.91948 11.5443C3.00676 11.5443 0.617188 9.0978 0.617188 6.04431C0.617188 2.99082 3.00676 0.544312 5.91948 0.544312C8.8322 0.544312 11.2218 2.99082 11.2218 6.04431Z" stroke="#9F9DA0"/>
<path d="M8.36629 6.74776L6.56888 5.69627V3.55437C6.56888 3.339 6.3457 3.16492 6.0696 3.16492C5.79349 3.16492 5.57031 3.339 5.57031 3.55437V5.89102C5.57031 6.01368 5.64421 6.12936 5.77003 6.20258L7.76712 7.3709C7.85698 7.42348 7.96185 7.44879 8.06619 7.44879C8.21847 7.44879 8.36825 7.39543 8.46612 7.29262C8.63192 7.12085 8.58698 6.87668 8.36629 6.74776Z" fill="#9F9DA0"/>
</svg>
