<svg width="24" height="24" viewBox="0 0 24 24" fill="none" xmlns="http://www.w3.org/2000/svg">
<path d="M20.67 9.94541C20.5497 9.67047 20.2779 9.49288 19.9777 9.49288H13.6957L16.7216 1.00994C16.8422 0.6716 16.7081 0.294959 16.4007 0.109108C16.0931 -0.0768444 15.6973 -0.0206052 15.4538 0.243457L3.46972 13.2388C3.26623 13.4595 3.21261 13.7797 3.33315 14.0546C3.45349 14.3295 3.72531 14.5071 4.02545 14.5071H8.10944C8.527 14.5071 8.86535 14.1687 8.86535 13.7512C8.86535 13.3338 8.527 12.9953 8.10944 12.9953H5.75073L14.052 3.99354L11.9113 9.9947C11.8289 10.2262 11.8678 10.4834 12.0095 10.6843C12.1511 10.8852 12.3854 11.0046 12.6313 11.0046H18.2523L9.95223 20.0054L12.0933 14.0052C12.1759 13.7737 12.1408 13.5165 11.9991 13.3156C11.8574 13.1148 11.6271 12.9952 11.3813 12.9952H11.3738C11.0186 12.9952 10.7233 13.2403 10.6431 13.5706L7.28208 22.9898C7.16134 23.3281 7.29549 23.7048 7.60289 23.8906C7.72434 23.9641 7.85959 23.9998 7.99374 23.9998C8.19924 23.9998 8.40243 23.916 8.54978 23.7563L20.5333 10.761C20.7368 10.5405 20.7905 10.2204 20.67 9.94541Z" fill="#2C0068"/>
</svg>
