<svg width="24" height="24" viewBox="0 0 24 24" fill="none" xmlns="http://www.w3.org/2000/svg">
<path d="M16.771 3.47188C15.481 2.20144 13.7861 1.50098 11.9997 1.50098C8.27836 1.50098 5.25 4.52933 5.25 8.25066V18.7502C5.25 19.1642 5.58598 19.5001 5.99996 19.5001H7.49989C7.91388 19.5001 8.24986 19.1642 8.24986 18.7502C8.24986 18.3362 7.91388 18.0002 7.49989 18.0002H6.74993V8.25066C6.74993 5.3558 9.10482 3.00091 11.9997 3.00091C13.3901 3.00091 14.7116 3.54688 15.7105 4.53233C16.7035 5.53879 17.2494 6.85873 17.2494 8.25066V18.0002H16.4995C16.0855 18.0002 15.7495 18.3362 15.7495 18.7502C15.7495 19.1642 16.0855 19.5001 16.4995 19.5001H17.9994C18.4134 19.5001 18.7494 19.1642 18.7494 18.7502V8.25066C18.7494 6.46274 18.0489 4.76782 16.771 3.47188Z" fill="#2C0068"/>
<path d="M13.4998 18H10.5C10.086 18 9.75 18.336 9.75 18.75C9.75 19.1639 10.086 19.4999 10.5 19.4999H13.4998C13.9138 19.4999 14.2498 19.1639 14.2498 18.75C14.2498 18.336 13.9138 18 13.4998 18Z" fill="#2C0068"/>
<path d="M10.4998 18C10.0858 18 9.74986 18.336 9.74986 18.75V21.7498C9.74986 22.1623 9.41387 22.4998 8.99989 22.4998C8.58591 22.4998 8.24993 22.1623 8.24993 21.7498V18.75C8.24993 18.336 7.91395 18 7.49996 18C7.08598 18 6.75 18.336 6.75 18.75V21.7498C6.75 22.9903 7.75945 23.9997 8.99989 23.9997C10.2403 23.9997 11.2498 22.9903 11.2498 21.7498V18.75C11.2498 18.336 10.9138 18 10.4998 18Z" fill="#2C0068"/>
<path d="M16.4998 18C16.0858 18 15.7499 18.336 15.7499 18.75V21.7498C15.7499 22.1623 15.4124 22.4998 14.9999 22.4998C14.5874 22.4998 14.2499 22.1623 14.2499 21.7498V18.75C14.2499 18.336 13.9139 18 13.5 18C13.086 18 12.75 18.336 12.75 18.75V21.7498C12.75 22.9903 13.7595 23.9997 14.9999 23.9997C16.2403 23.9997 17.2498 22.9903 17.2498 21.7498V18.75C17.2498 18.336 16.9138 18 16.4998 18Z" fill="#2C0068"/>
<path d="M3.00021 7.5C2.58623 7.5 2.25024 7.83598 2.25024 8.24997V15.7496C2.25024 16.1636 2.58623 16.4996 3.00021 16.4996C3.41419 16.4996 3.75017 16.1636 3.75017 15.7496V8.24997C3.75017 7.83598 3.41419 7.5 3.00021 7.5Z" fill="#2C0068"/>
<path d="M20.9995 7.5C20.5855 7.5 20.2495 7.83598 20.2495 8.24997V15.7496C20.2495 16.1636 20.5855 16.4996 20.9995 16.4996C21.4135 16.4996 21.7494 16.1636 21.7494 15.7496V8.24997C21.7494 7.83598 21.4135 7.5 20.9995 7.5Z" fill="#2C0068"/>
<path d="M17.9994 7.5H5.99996C5.58598 7.5 5.25 7.83598 5.25 8.24996C5.25 8.66395 5.58598 8.99993 5.99996 8.99993H17.9994C18.4134 8.99993 18.7494 8.66395 18.7494 8.24996C18.7494 7.83598 18.4134 7.5 17.9994 7.5Z" fill="#2C0068"/>
<path d="M8.60992 3.40478L6.63002 0.344922C6.40503 -0.00456125 5.94005 -0.103557 5.59357 0.121433C5.24559 0.346422 5.14509 0.811401 5.37008 1.15788L7.34998 4.21774C7.49248 4.43973 7.73396 4.56122 7.97995 4.56122C8.12095 4.56122 8.26044 4.52223 8.38643 4.44123C8.73441 4.21624 8.83491 3.75126 8.60992 3.40478Z" fill="#2C0068"/>
<path d="M18.3795 0.103108C18.027 -0.105382 17.5635 0.0116123 17.3535 0.370096L15.4936 3.53495C15.2836 3.89343 15.4036 4.35241 15.7606 4.5624C15.8791 4.6329 16.0096 4.66589 16.14 4.66589C16.3965 4.66589 16.647 4.5324 16.7865 4.29541L18.6464 1.13056C18.8564 0.772077 18.7364 0.313098 18.3795 0.103108Z" fill="#2C0068"/>
<path d="M13.5309 4.5H13.5159C13.1004 4.5 12.7734 4.83598 12.7734 5.24996C12.7734 5.66395 13.1169 5.99993 13.5309 5.99993C13.9449 5.99993 14.2809 5.66395 14.2809 5.24996C14.2809 4.83598 13.9449 4.5 13.5309 4.5Z" fill="#2C0068"/>
<path d="M10.5309 4.5H10.5159C10.1019 4.5 9.77344 4.83598 9.77344 5.24996C9.77344 5.66395 10.1169 5.99993 10.5309 5.99993C10.9449 5.99993 11.2809 5.66395 11.2809 5.24996C11.2809 4.83598 10.9449 4.5 10.5309 4.5Z" fill="#2C0068"/>
</svg>
