<svg width="18" height="18" viewBox="0 0 18 18" fill="none" xmlns="http://www.w3.org/2000/svg">
<path d="M10.5975 8.50495C10.89 7.27494 9.8175 6.2024 8.5875 6.4949C8.01 6.6374 7.5375 7.10991 7.39498 7.68745C7.10248 8.91745 8.175 9.98988 9.405 9.69738C9.99 9.55488 10.4625 9.08245 10.5975 8.50495Z" stroke="#6E6681" stroke-linecap="round" stroke-linejoin="round"/>
<path d="M13.5074 12.8925C14.7899 11.6925 15.5924 9.99 15.5924 8.0925C15.5924 4.44748 12.6375 1.5 9 1.5C5.36246 1.5 2.40747 4.45498 2.40747 8.0925C2.40747 9.9975 3.21747 11.715 4.51497 12.915" stroke="#6E6681" stroke-linecap="round" stroke-linejoin="round"/>
<path d="M6.00002 10.9126C5.31002 10.1776 4.88251 9.18756 4.88251 8.09256C4.88251 5.82009 6.72752 3.9751 9 3.9751C11.2725 3.9751 13.1175 5.82009 13.1175 8.09256C13.1175 9.18756 12.69 10.1701 12 10.9126" stroke="#6E6681" stroke-linecap="round" stroke-linejoin="round"/>
<path d="M7.725 12.495L6.64498 13.8375C5.78998 14.91 6.54748 16.4925 7.92 16.4925H10.0725C11.445 16.4925 12.21 14.9025 11.3475 13.8375L10.2675 12.495C9.6225 11.6775 8.3775 11.6775 7.725 12.495Z" stroke="#6E6681" stroke-linecap="round" stroke-linejoin="round"/>
</svg>
