<svg width="31" height="31" viewBox="0 0 31 31" fill="none" xmlns="http://www.w3.org/2000/svg">
<path d="M15.1031 16.3481C15.8476 16.348 16.5752 16.5706 17.1923 16.9873C17.8094 17.4039 18.2878 17.9955 18.5661 18.6861C18.8443 19.3767 18.9097 20.1347 18.7539 20.8628C18.5981 21.5909 18.2281 22.2557 17.6915 22.7719L15.3146 25.0592H18.8364V27.5481H11.3697V25.4027L15.9655 20.9787C16.1138 20.8361 16.2244 20.659 16.2875 20.4633C16.3506 20.2675 16.3642 20.0591 16.3271 19.8568C16.2899 19.6545 16.2032 19.4646 16.0747 19.304C15.9462 19.1434 15.7799 19.0171 15.5907 18.9365C15.4014 18.856 15.1952 18.8235 14.9903 18.8422C14.7855 18.8608 14.5885 18.9299 14.4169 19.0433C14.2453 19.1568 14.1045 19.3109 14.0071 19.4921C13.9096 19.6732 13.8586 19.8757 13.8586 20.0814H11.3697C11.3697 19.0913 11.7631 18.1417 12.4632 17.4415C13.1633 16.7414 14.1129 16.3481 15.1031 16.3481ZM22.5697 16.3481V21.3259H25.0586V16.3481H27.5475V27.5481H25.0586V23.8147H20.0809V16.3481H22.5697ZM5.14752 15.1036C5.14599 16.5965 5.48082 18.0704 6.12714 19.4161C6.77347 20.7617 7.71468 21.9445 8.88085 22.8764V25.883C6.98832 24.7911 5.4168 23.2199 4.32449 21.3276C3.23218 19.4352 2.65762 17.2886 2.65863 15.1036H5.14752ZM15.1031 2.65919C21.5555 2.65919 26.8618 7.57101 27.4853 13.8592H24.9815C24.739 11.9366 23.9408 10.1265 22.6846 8.65088C21.4285 7.17528 19.7691 6.0983 17.9098 5.55201C16.0506 5.00571 14.0723 5.01384 12.2176 5.5754C10.3629 6.13696 8.71237 7.22753 7.46841 8.71341L10.1253 11.3703H2.65863V3.90363L5.70379 6.94754C6.87093 5.60004 8.31449 4.51959 9.93636 3.77962C11.5582 3.03966 13.3204 2.65752 15.1031 2.65919Z" fill="#390179"/>
</svg>
