<svg width="24" height="24" viewBox="0 0 24 24" fill="none" xmlns="http://www.w3.org/2000/svg">
<path d="M12 13C12.5983 13 13.183 13.1788 13.6788 13.5136C14.1747 13.8484 14.5591 14.3238 14.7828 14.8788C15.0064 15.4337 15.0589 16.0429 14.9337 16.6279C14.8085 17.213 14.5112 17.7472 14.08 18.162L12.17 20H15V22H9V20.276L12.693 16.721C12.8122 16.6065 12.9011 16.4642 12.9518 16.3069C13.0025 16.1495 13.0134 15.9821 12.9836 15.8195C12.9537 15.657 12.8841 15.5043 12.7808 15.3753C12.6775 15.2462 12.5439 15.1448 12.3918 15.08C12.2398 15.0153 12.074 14.9892 11.9094 15.0042C11.7448 15.0192 11.5865 15.0747 11.4486 15.1658C11.3107 15.257 11.1976 15.3809 11.1193 15.5264C11.041 15.672 11 15.8347 11 16H9C9 15.2044 9.31607 14.4413 9.87868 13.8787C10.4413 13.3161 11.2044 13 12 13ZM18 13V17H20V13H22V22H20V19H16V13H18ZM4 12C3.99877 13.1996 4.26783 14.384 4.7872 15.4654C5.30657 16.5467 6.0629 17.4971 7 18.246V20.662C5.47921 19.7846 4.21639 18.522 3.33864 17.0014C2.46089 15.4808 1.99919 13.7558 2 12H4ZM12 2C17.185 2 21.449 5.947 21.95 11H19.938C19.7432 9.45504 19.1017 8.00051 18.0923 6.81476C17.0829 5.62901 15.7495 4.76358 14.2554 4.32459C12.7614 3.88561 11.1717 3.89214 9.68132 4.34339C8.19093 4.79464 6.86462 5.671 5.865 6.865L8 9H2V3L4.447 5.446C5.38489 4.36319 6.54489 3.49497 7.84817 2.90036C9.15146 2.30574 10.5675 1.99867 12 2Z" fill="#390179"/>
</svg>
