<svg width="24" height="24" viewBox="0 0 24 24" fill="none" xmlns="http://www.w3.org/2000/svg">
<path d="M13.3701 2.09408C10.9774 1.76493 8.54634 2.31263 6.52592 3.63604C4.5055 4.95944 3.03214 6.96918 2.3779 9.29414C1.72365 11.6191 1.9327 14.1023 2.96646 16.2851C4.00021 18.468 5.78885 20.2031 8.0021 21.1701C7.94224 20.4019 7.99718 19.6291 8.1651 18.8771C8.3501 18.0381 9.4611 13.4141 9.4611 13.4141C9.23986 12.9182 9.1293 12.38 9.1371 11.8371C9.1371 10.3521 9.9941 9.24408 11.0601 9.24408C11.2516 9.24129 11.4415 9.27977 11.6168 9.35691C11.7921 9.43404 11.9487 9.54802 12.076 9.6911C12.2034 9.83418 12.2984 10.003 12.3547 10.1861C12.4109 10.3691 12.4271 10.5622 12.4021 10.7521C12.4021 11.6521 11.8241 13.0141 11.5221 14.2921C11.4624 14.5265 11.4586 14.7716 11.511 15.0077C11.5635 15.2438 11.6706 15.4643 11.8239 15.6514C11.9771 15.8385 12.1722 15.987 12.3933 16.0849C12.6145 16.1828 12.8556 16.2274 13.0971 16.2151C14.9951 16.2151 16.2671 13.7841 16.2671 10.9141C16.2671 8.71408 14.8101 7.06608 12.1241 7.06608C11.4815 7.04111 10.8405 7.147 10.24 7.37733C9.63958 7.60766 9.09221 7.95762 8.63115 8.40597C8.17008 8.85431 7.80495 9.39168 7.55792 9.98545C7.31089 10.5792 7.18711 11.217 7.1941 11.8601C7.16546 12.5734 7.3956 13.273 7.8421 13.8301C7.92553 13.8924 7.98645 13.9801 8.01567 14.08C8.04489 14.1799 8.04083 14.2867 8.0041 14.3841C7.9581 14.5681 7.8421 15.0071 7.7961 15.1681C7.78653 15.2227 7.76427 15.2743 7.73112 15.3187C7.69797 15.3631 7.65484 15.3991 7.60523 15.4238C7.55561 15.4486 7.50088 15.4613 7.44545 15.461C7.39002 15.4607 7.33544 15.4473 7.2861 15.4221C5.9021 14.8681 5.2501 13.3451 5.2501 11.6061C5.2501 8.75908 7.6341 5.35108 12.4041 5.35108C16.2001 5.35108 18.7241 8.12808 18.7241 11.0981C18.7241 15.0071 16.5471 17.9461 13.3301 17.9461C12.8493 17.9614 12.3724 17.8553 11.9434 17.6375C11.5145 17.4198 11.1474 17.0973 10.8761 16.7001C10.8761 16.7001 10.2981 19.0161 10.1841 19.4541C9.95139 20.2108 9.608 20.9289 9.1651 21.5851C10.0881 21.8651 11.0471 22.0051 12.0111 22.0011C13.3247 22.0021 14.6256 21.7441 15.8393 21.2417C17.053 20.7392 18.1556 20.0024 19.0842 19.0732C20.0127 18.144 20.7488 17.0408 21.2504 15.8268C21.7519 14.6127 22.0091 13.3117 22.0071 11.9981C22.0059 9.58308 21.1309 7.25007 19.5437 5.42986C17.9566 3.60964 15.7644 2.42514 13.3721 2.09508L13.3701 2.09408Z" fill="#334559"/>
</svg>
