<svg width="24" height="24" viewBox="0 0 24 24" fill="none" xmlns="http://www.w3.org/2000/svg">
<g clip-path="url(#clip0)">
<path d="M1.40625 12C1.40625 6.15858 6.15858 1.40625 12 1.40625C14.1969 1.40625 16.292 2.07239 18.0561 3.30877H16.6932C16.3049 3.30877 15.9901 3.62358 15.9901 4.01189C15.9901 4.4002 16.3049 4.71502 16.6932 4.71502H19.9882C20.3765 4.71502 20.6913 4.4002 20.6913 4.01189V0.716953C20.6913 0.328641 20.3765 0.0138281 19.9882 0.0138281C19.5998 0.0138281 19.285 0.328641 19.285 0.716953V2.46722C17.2025 0.867141 14.6677 0 12 0C8.79469 0 5.78123 1.24823 3.51469 3.51469C1.24823 5.78123 0 8.79469 0 12C0 14.1057 0.556453 16.1804 1.60922 17.9999C1.73953 18.2252 1.97569 18.351 2.21845 18.351C2.33798 18.351 2.45911 18.3205 2.56997 18.2564C2.90606 18.0619 3.02086 17.6318 2.82642 17.2956C1.89736 15.6899 1.40625 13.8587 1.40625 12Z" fill="#2C0068"/>
<path d="M22.3909 6.00049C22.1963 5.66435 21.7661 5.5496 21.4301 5.74408C21.094 5.93857 20.9792 6.36869 21.1737 6.70483C22.1027 8.31044 22.5938 10.1416 22.5938 12.0004C22.5938 17.8418 17.8415 22.5941 12.0001 22.5941C9.80337 22.5941 7.70862 21.9278 5.94476 20.6916H7.30685C7.69517 20.6916 8.00998 20.3768 8.00998 19.9885C8.00998 19.6002 7.69517 19.2854 7.30685 19.2854H4.01196C3.62365 19.2854 3.30884 19.6002 3.30884 19.9885V23.2834C3.30884 23.6718 3.62365 23.9866 4.01196 23.9866C4.40028 23.9866 4.71509 23.6718 4.71509 23.2834V21.5314C6.79756 23.132 9.33209 24.0004 12.0001 24.0004C15.2054 24.0004 18.2188 22.7522 20.4854 20.4857C22.7518 18.2192 24.0001 15.2057 24.0001 12.0004C24.0001 9.89463 23.4436 7.8199 22.3909 6.00049Z" fill="#2C0068"/>
<path d="M18.2541 10.5873C18.3023 10.4072 18.277 10.2153 18.1838 10.0538L16.7775 7.61808C16.6843 7.45659 16.5307 7.33875 16.3506 7.29047C16.1705 7.24223 15.9786 7.26745 15.8171 7.36073L15.0166 7.82288C14.732 7.61634 14.4289 7.44075 14.1097 7.29745V6.375C14.1097 5.98669 13.7949 5.67188 13.4066 5.67188H10.5941C10.2058 5.67188 9.89096 5.98669 9.89096 6.375V7.29741C9.57174 7.44075 9.26874 7.6163 8.98402 7.82283L8.18358 7.36069C8.0221 7.26741 7.83 7.24214 7.65005 7.29042C7.46991 7.33866 7.31635 7.4565 7.22311 7.61803L5.81686 10.0538C5.72363 10.2152 5.69836 10.4072 5.7466 10.5873C5.79488 10.7674 5.91272 10.921 6.07421 11.0142L6.87075 11.4741C6.85299 11.6487 6.84408 11.8244 6.84408 12C6.84408 12.1756 6.85299 12.3513 6.87075 12.5258L6.07421 12.9857C5.91272 13.0789 5.79488 13.2325 5.7466 13.4126C5.69836 13.5928 5.72363 13.7847 5.81686 13.9462L7.22311 16.3819C7.31635 16.5434 7.46996 16.6612 7.65005 16.7095C7.83024 16.7578 8.02214 16.7325 8.18358 16.6392L8.98402 16.1771C9.26869 16.3837 9.57174 16.5592 9.89096 16.7025V17.625C9.89096 18.0133 10.2058 18.3281 10.5941 18.3281H13.4066C13.7949 18.3281 14.1097 18.0133 14.1097 17.625V16.7026C14.4289 16.5593 14.7319 16.3837 15.0166 16.1772L15.8171 16.6393C15.9785 16.7325 16.1706 16.7578 16.3506 16.7096C16.5308 16.6613 16.6843 16.5435 16.7775 16.382L18.1838 13.9462C18.277 13.7848 18.3023 13.5928 18.2541 13.4127C18.2058 13.2326 18.0879 13.079 17.9265 12.9858L17.1299 12.5259C17.1477 12.3513 17.1566 12.1756 17.1566 12C17.1566 11.8244 17.1477 11.6487 17.1299 11.4742L17.9265 11.0143C18.0879 10.921 18.2058 10.7675 18.2541 10.5873ZM15.6744 11.2455C15.7248 11.4922 15.7503 11.7461 15.7503 12C15.7503 12.2539 15.7248 12.5078 15.6744 12.7545C15.6139 13.0509 15.7498 13.3529 16.0118 13.5041L16.6144 13.852L15.9113 15.0698L15.3036 14.719C15.0415 14.5677 14.7118 14.6011 14.4853 14.8021C14.1018 15.1425 13.6642 15.396 13.1844 15.5557C12.8972 15.6514 12.7034 15.9201 12.7034 16.2229V16.9219H11.2972V16.2229C11.2972 15.9202 11.1034 15.6514 10.8161 15.5557C10.3364 15.396 9.89874 15.1425 9.5153 14.8021C9.28885 14.601 8.95913 14.5677 8.69696 14.719L8.08931 15.0698L7.38619 13.852L7.98881 13.5041C8.2508 13.3529 8.38669 13.0509 8.32613 12.7545C8.27588 12.5078 8.25033 12.2539 8.25033 12C8.25033 11.7461 8.27588 11.4922 8.32622 11.2455C8.38678 10.9491 8.25089 10.6471 7.98891 10.4959L7.38628 10.148L8.08941 8.93016L8.69705 9.28097C8.95922 9.43238 9.28889 9.39895 9.51539 9.19791C9.89883 8.85755 10.3365 8.604 10.8163 8.44425C11.1035 8.34858 11.2973 8.07984 11.2973 7.77713V7.07812H12.7035V7.77713C12.7035 8.07984 12.8973 8.34858 13.1845 8.44425C13.6643 8.604 14.1019 8.85755 14.4854 9.19791C14.7118 9.39895 15.0415 9.43233 15.3037 9.28097L15.9113 8.93016L16.6145 10.148L16.0118 10.4959C15.7498 10.6471 15.6139 10.9491 15.6744 11.2455Z" fill="#2C0068"/>
<path d="M12 9.42188C10.5784 9.42188 9.42188 10.5784 9.42188 12C9.42188 13.4216 10.5784 14.5781 12 14.5781C13.4216 14.5781 14.5781 13.4216 14.5781 12C14.5781 10.5784 13.4216 9.42188 12 9.42188ZM12 13.1719C11.3538 13.1719 10.8281 12.6462 10.8281 12C10.8281 11.3538 11.3538 10.8281 12 10.8281C12.6462 10.8281 13.1719 11.3538 13.1719 12C13.1719 12.6462 12.6462 13.1719 12 13.1719Z" fill="#2C0068"/>
</g>
<defs>
<clipPath id="clip0">
<rect width="24" height="24" fill="white"/>
</clipPath>
</defs>
</svg>
