<svg width="26" height="26" viewBox="0 0 26 26" fill="none" xmlns="http://www.w3.org/2000/svg">
<path d="M19.4999 7.75663C19.4349 7.74579 19.3591 7.74579 19.2941 7.75663C17.7991 7.70246 16.6074 6.47829 16.6074 4.96163C16.6074 3.41246 17.8533 2.16663 19.4024 2.16663C20.9516 2.16663 22.1974 3.42329 22.1974 4.96163C22.1866 6.47829 20.9949 7.70246 19.4999 7.75663Z" stroke="#08278D" stroke-width="1.5" stroke-linecap="round" stroke-linejoin="round"/>
<path d="M18.3841 15.6433C19.8682 15.8925 21.5041 15.6325 22.6524 14.8633C24.1799 13.845 24.1799 12.1766 22.6524 11.1583C21.4932 10.3892 19.8357 10.1292 18.3516 10.3892" stroke="#08278D" stroke-width="1.5" stroke-linecap="round" stroke-linejoin="round"/>
<path d="M6.46752 7.75663C6.53252 7.74579 6.60835 7.74579 6.67335 7.75663C8.16835 7.70246 9.36002 6.47829 9.36002 4.96163C9.36002 3.41246 8.11419 2.16663 6.56502 2.16663C5.01585 2.16663 3.77002 3.42329 3.77002 4.96163C3.78085 6.47829 4.97252 7.70246 6.46752 7.75663Z" stroke="#08278D" stroke-width="1.5" stroke-linecap="round" stroke-linejoin="round"/>
<path d="M7.58315 15.6433C6.09898 15.8925 4.46315 15.6325 3.31481 14.8633C1.78731 13.845 1.78731 12.1766 3.31481 11.1583C4.47398 10.3892 6.13148 10.1292 7.61565 10.3892" stroke="#08278D" stroke-width="1.5" stroke-linecap="round" stroke-linejoin="round"/>
<path d="M13 15.8492C12.935 15.8384 12.8591 15.8384 12.7941 15.8492C11.2991 15.795 10.1074 14.5709 10.1074 13.0542C10.1074 11.505 11.3533 10.2592 12.9025 10.2592C14.4516 10.2592 15.6975 11.5159 15.6975 13.0542C15.6866 14.5709 14.495 15.8059 13 15.8492Z" stroke="#08278D" stroke-width="1.5" stroke-linecap="round" stroke-linejoin="round"/>
<path d="M9.84753 19.2616C8.32003 20.28 8.32003 21.9483 9.84753 22.9666C11.5809 24.1258 14.4192 24.1258 16.1526 22.9666C17.6801 21.9483 17.6801 20.28 16.1526 19.2616C14.4301 18.1133 11.5809 18.1133 9.84753 19.2616Z" stroke="#08278D" stroke-width="1.5" stroke-linecap="round" stroke-linejoin="round"/>
</svg>
