<svg width="24" height="23" viewBox="0 0 24 23" fill="none" xmlns="http://www.w3.org/2000/svg">
<path d="M14.2571 14.2867C13.4617 13.3941 13.0185 12.2772 13.0003 11.1202C12.9822 9.96309 13.3903 8.83481 14.1573 7.92116C14.9244 7.00752 16.0047 6.36301 17.2203 6.09381C18.4359 5.82461 19.7142 5.94677 20.8448 6.44016C21.9754 6.93356 22.8907 7.76876 23.4401 8.8082C23.9894 9.84763 24.1399 11.0293 23.8669 12.1586C23.5939 13.2878 22.9136 14.2973 21.9381 15.0207C20.9626 15.7441 19.75 16.1384 18.5001 16.1384H5.50013C4.25025 16.1384 3.03768 15.7441 2.06215 15.0207C1.08662 14.2973 0.406317 13.2878 0.133306 12.1586C-0.139706 11.0293 0.0108573 9.84763 0.560193 8.8082C1.10953 7.76876 2.02487 6.93356 3.15545 6.44016C4.28602 5.94677 5.56438 5.82461 6.77997 6.09381C7.99555 6.36301 9.07585 7.00752 9.84291 7.92116C10.61 8.83481 11.018 9.96309 10.9999 11.1202C10.9818 12.2772 10.5385 13.3941 9.74312 14.2867H14.2571ZM5.50013 14.2867C6.42839 14.2867 7.31862 13.9453 7.975 13.3376C8.63138 12.7299 9.00012 11.9057 9.00012 11.0463C9.00012 10.1868 8.63138 9.36262 7.975 8.75491C7.31862 8.14721 6.42839 7.8058 5.50013 7.8058C4.57187 7.8058 3.68163 8.14721 3.02526 8.75491C2.36888 9.36262 2.00013 10.1868 2.00013 11.0463C2.00013 11.9057 2.36888 12.7299 3.02526 13.3376C3.68163 13.9453 4.57187 14.2867 5.50013 14.2867ZM18.5001 14.2867C19.4284 14.2867 20.3186 13.9453 20.975 13.3376C21.6314 12.7299 22.0001 11.9057 22.0001 11.0463C22.0001 10.1868 21.6314 9.36262 20.975 8.75491C20.3186 8.14721 19.4284 7.8058 18.5001 7.8058C17.5719 7.8058 16.6816 8.14721 16.0252 8.75491C15.3689 9.36262 15.0001 10.1868 15.0001 11.0463C15.0001 11.9057 15.3689 12.7299 16.0252 13.3376C16.6816 13.9453 17.5719 14.2867 18.5001 14.2867Z" fill="#390179"/>
</svg>
