<svg width="24" height="24" viewBox="0 0 24 24" fill="none" xmlns="http://www.w3.org/2000/svg">
<path fill-rule="evenodd" clip-rule="evenodd" d="M1.25024 6C1.25024 4.48122 2.48146 3.25 4.00024 3.25H20.0002C21.519 3.25 22.7502 4.48122 22.7502 6V16C22.7502 17.5188 21.519 18.75 20.0002 18.75H14.2137L14.9637 20.25H17.0002C17.4144 20.25 17.7502 20.5858 17.7502 21C17.7502 21.4142 17.4144 21.75 17.0002 21.75H7.00024C6.58603 21.75 6.25024 21.4142 6.25024 21C6.25024 20.5858 6.58603 20.25 7.00024 20.25H9.03671L9.78671 18.75H4.00024C2.48146 18.75 1.25024 17.5188 1.25024 16V6ZM20.0002 17.25H4.00024C3.30988 17.25 2.75024 16.6904 2.75024 16V6C2.75024 5.30964 3.30988 4.75 4.00024 4.75H20.0002C20.6906 4.75 21.2502 5.30964 21.2502 6V16C21.2502 16.6904 20.6906 17.25 20.0002 17.25Z" fill="#2C0068"/>
</svg>
