<svg width="24" height="24" viewBox="0 0 24 24" fill="none" xmlns="http://www.w3.org/2000/svg">
<path d="M23.9998 22.9427C23.9996 22.0957 23.4959 21.334 22.7164 21.0024L16.7377 18.4587V17.0283C17.2897 16.2136 17.6369 15.2496 17.7057 14.2106H18.4241C19.8455 14.2106 21.0022 13.054 21.0022 11.6325V9.54602C21.0022 8.33185 20.1581 7.31177 19.0263 7.03967C18.975 4.9693 18.5067 3.39587 17.5988 2.23865C16.4333 0.753113 14.5497 0 12 0C9.45026 0 7.56665 0.753113 6.40118 2.23883C5.49316 3.39587 5.02496 4.9693 4.97369 7.03967C3.84174 7.31177 2.9978 8.33185 2.9978 9.54602V11.6325C2.9978 13.054 4.15448 14.2106 5.57593 14.2106H6.29425C6.3631 15.2496 6.71027 16.2136 7.26233 17.0283V18.4587L1.28357 21.0024C0.504089 21.334 0.000183105 22.0959 0.000183105 22.9429L0 23.2965C0 23.4831 0.0739746 23.662 0.205994 23.7938C0.33783 23.9257 0.516541 23.9998 0.703125 23.9998H23.2969C23.4835 23.9998 23.6624 23.9257 23.7942 23.7938C23.926 23.6618 24 23.4829 24 23.2965L23.9998 22.9427ZM15.3322 18.952C15.3327 18.9688 15.3721 20.6754 14.3641 21.7251C13.8105 22.3013 13.0151 22.5934 12 22.5934C10.9885 22.5934 10.1951 22.3033 9.64197 21.7313C8.62189 20.6761 8.66748 18.9668 8.66785 18.952C8.66821 18.9437 8.6684 18.9355 8.6684 18.9272C8.6684 18.9243 8.66858 18.9214 8.66858 18.9183V18.4741C9.60718 19.1494 10.758 19.5474 12 19.5474C13.242 19.5474 14.3928 19.1492 15.3314 18.4741V18.9185C15.3314 18.9212 15.3316 18.9241 15.3316 18.9271C15.3316 18.9353 15.3318 18.9435 15.3322 18.952ZM16.3147 9.14502C16.3138 9.15912 16.3125 9.17322 16.3125 9.18768V13.1327L14.9771 14.0231C14.5523 14.3064 14.0577 14.4562 13.5469 14.4562H12.3576C11.9694 14.4562 11.6545 14.7709 11.6545 15.1593C11.6545 15.5477 11.9694 15.8624 12.3576 15.8624H13.5469C14.3362 15.8624 15.1007 15.631 15.7573 15.193L16.1737 14.9154C15.6909 16.769 14.0026 18.1414 12 18.1414C9.62201 18.1414 7.6875 16.2067 7.6875 13.8289V9.18768C7.6875 9.17303 7.68622 9.15894 7.6853 9.14465V8.1828C7.68622 8.16852 7.6875 8.15442 7.6875 8.13977C7.6875 6.93018 7.98029 6.1311 8.5578 5.76508C9.4986 5.16852 11.144 5.7171 11.6975 5.97839C11.8879 6.06921 12.1104 6.06903 12.3012 5.97894C12.856 5.71729 14.5012 5.1687 15.4422 5.76508C16.0197 6.1311 16.3125 6.93018 16.3125 8.13977C16.3125 8.15424 16.3138 8.16833 16.3147 8.18243V9.14502ZM19.5959 9.54602V11.6325C19.5959 12.2787 19.0703 12.8044 18.4241 12.8044H17.7209V8.37415H18.4241C19.0703 8.37415 19.5959 8.89984 19.5959 9.54602ZM12 1.40625C15.7234 1.40625 17.4721 3.10803 17.6151 6.90546C17.4185 5.83026 16.9418 5.04858 16.1904 4.57434C14.7356 3.65607 12.7522 4.28394 12 4.57983C11.2478 4.28394 9.2644 3.65607 7.80963 4.57434C7.05817 5.04858 6.58154 5.83026 6.38489 6.90546C6.52789 3.10803 8.27655 1.40625 12 1.40625ZM6.27905 12.8044H5.57593C4.92975 12.8044 4.40405 12.2787 4.40405 11.6325V9.54602C4.40405 8.89984 4.92975 8.37415 5.57593 8.37415H6.27905V12.8044ZM1.83417 22.2964L7.3429 19.9526C7.46631 20.7156 7.77283 21.7538 8.52429 22.5936H1.49927C1.57379 22.4634 1.68988 22.3577 1.83417 22.2964ZM15.4757 22.5936C16.2272 21.7538 16.5337 20.7156 16.6571 19.9526L22.1658 22.2964C22.3101 22.3577 22.426 22.4634 22.5007 22.5936H15.4757Z" fill="#2C0068"/>
</svg>
