<svg width="15" height="17" viewBox="0 0 15 17" fill="none" xmlns="http://www.w3.org/2000/svg">
<path d="M14.1667 16.6667H0.833333C0.61232 16.6667 0.400358 16.5789 0.244078 16.4226C0.0877973 16.2663 0 16.0543 0 15.8333V0.833333C0 0.61232 0.0877973 0.400358 0.244078 0.244078C0.400358 0.0877973 0.61232 0 0.833333 0H14.1667C14.3877 0 14.5996 0.0877973 14.7559 0.244078C14.9122 0.400358 15 0.61232 15 0.833333V15.8333C15 16.0543 14.9122 16.2663 14.7559 16.4226C14.5996 16.5789 14.3877 16.6667 14.1667 16.6667ZM13.3333 15V1.66667H1.66667V15H13.3333ZM3.33333 3.33333H6.66667V6.66667H3.33333V3.33333ZM3.33333 8.33333H11.6667V10H3.33333V8.33333ZM3.33333 11.6667H11.6667V13.3333H3.33333V11.6667ZM8.33333 4.16667H11.6667V5.83333H8.33333V4.16667Z" fill="#A089B9"/>
</svg>
