<svg width="24" height="24" viewBox="0 0 24 24" fill="none" xmlns="http://www.w3.org/2000/svg">
<path d="M22.3594 14.1553H17.6719C16.7672 14.1553 16.0312 14.8913 16.0312 15.7959V17.6709C16.0312 18.0586 15.7158 18.374 15.3281 18.374H8.67188C8.28417 18.374 7.96875 18.0586 7.96875 17.6709V15.7959C7.96875 14.8913 7.23277 14.1553 6.32812 14.1553H1.64062C0.735984 14.1553 0 14.8913 0 15.7959V17.6697C0 19.0696 0.502172 20.4261 1.41403 21.4891C2.32636 22.5527 3.59081 23.2548 4.97452 23.4662C7.30538 23.8222 9.65269 24.0001 12 24.0001C14.3473 24.0001 16.6946 23.8222 19.0255 23.4662C20.4091 23.2549 21.6736 22.5527 22.586 21.4891C23.4978 20.4261 24 19.0696 24 17.6697V15.7959C24 14.8913 23.264 14.1553 22.3594 14.1553ZM1.40625 16.9678V15.7959C1.40625 15.6667 1.51139 15.5615 1.64062 15.5615H6.32812C6.45736 15.5615 6.5625 15.6667 6.5625 15.7959V16.9678H1.40625ZM18.8132 22.0761C14.2923 22.7665 9.70772 22.7665 5.18681 22.0761C3.23283 21.7776 1.75781 20.2706 1.46175 18.374H6.68344C6.97369 19.1924 7.75523 19.7803 8.67188 19.7803H15.3281C16.2448 19.7803 17.0263 19.1924 17.3166 18.374H22.5383C22.2422 20.2706 20.7672 21.7776 18.8132 22.0761ZM22.5938 16.9678H17.4375V15.7959C17.4375 15.6667 17.5426 15.5615 17.6719 15.5615H22.3594C22.4886 15.5615 22.5938 15.6667 22.5938 15.7959V16.9678Z" fill="#2C0068"/>
<path d="M12.9375 4.6875H13.6406V11.9531C13.6406 12.3414 13.9555 12.6562 14.3438 12.6562H17.1563C17.5446 12.6562 17.8594 12.3414 17.8594 11.9531V4.6875H18.5625C18.8371 4.6875 19.0866 4.52766 19.2013 4.27819C19.316 4.02872 19.2751 3.73528 19.0963 3.52678L16.2838 0.245531C16.1503 0.0897188 15.9553 0 15.75 0C15.5448 0 15.3498 0.0897188 15.2162 0.245531L12.4037 3.52678C12.225 3.73528 12.184 4.02872 12.2987 4.27819C12.4135 4.52766 12.6629 4.6875 12.9375 4.6875ZM15.75 1.78355L17.0418 3.29053C16.7079 3.34523 16.4531 3.63506 16.4531 3.98438V11.25H15.0469V3.98438C15.0469 3.63506 14.7921 3.34523 14.4583 3.29053L15.75 1.78355Z" fill="#2C0068"/>
<path d="M7.71613 12.4107C7.84972 12.5666 8.04472 12.6562 8.24999 12.6562C8.45525 12.6562 8.65025 12.5665 8.78385 12.4107L11.5963 9.12947C11.775 8.92097 11.8161 8.62753 11.7013 8.37806C11.5866 8.12859 11.3371 7.96875 11.0625 7.96875H10.3594V0.703125C10.3594 0.314812 10.0446 0 9.65624 0H6.84374C6.45543 0 6.14061 0.314812 6.14061 0.703125V7.96875H5.43749C5.16289 7.96875 4.91343 8.12859 4.79872 8.37806C4.68397 8.62753 4.72494 8.92097 4.90368 9.12947L7.71613 12.4107ZM7.54686 8.67188V1.40625H8.95311V8.67188C8.95311 9.02119 9.20788 9.31102 9.54172 9.36572L8.24999 10.8727L6.95825 9.36572C7.2921 9.31102 7.54686 9.02119 7.54686 8.67188Z" fill="#2C0068"/>
</svg>
