<svg width="24" height="24" viewBox="0 0 24 24" fill="none" xmlns="http://www.w3.org/2000/svg">
<g clip-path="url(#clip0)">
<path d="M15.7832 3.50836C15.2994 3.32349 14.7576 3.56551 14.5727 4.04916C14.3878 4.53272 14.6299 5.07474 15.1134 5.25966C18.4273 6.52693 20.7188 9.72122 20.7188 13.4063C20.7188 18.2139 16.8075 22.1251 12 22.1251C7.19245 22.1251 3.28125 18.2139 3.28125 13.4063C3.28125 9.71921 5.57381 6.52669 8.88623 5.2598C9.36984 5.07483 9.61191 4.53282 9.42698 4.04926C9.24197 3.56565 8.69986 3.32363 8.21644 3.50851C4.18055 5.05215 1.40625 8.93879 1.40625 13.4063C1.40625 19.2621 6.14484 24.0001 12 24.0001C17.8557 24.0001 22.5938 19.2615 22.5938 13.4063C22.5938 8.93682 19.8177 5.0513 15.7832 3.50836Z" fill="#2C0068"/>
<path d="M12 0C11.4822 0 11.0625 0.419719 11.0625 0.9375V10.118C11.0625 10.6358 11.4822 11.0555 12 11.0555C12.5178 11.0555 12.9375 10.6357 12.9375 10.118V0.9375C12.9375 0.419719 12.5178 0 12 0Z" fill="#2C0068"/>
</g>
<defs>
<clipPath id="clip0">
<rect width="24" height="24" fill="white"/>
</clipPath>
</defs>
</svg>
