<svg width="15" height="12" viewBox="0 0 15 12" fill="none" xmlns="http://www.w3.org/2000/svg">
<path d="M0.333252 5.77136C0.333252 5.45495 0.56838 5.19345 0.873443 5.15207L0.958252 5.14636L13.4583 5.14636C13.8034 5.14636 14.0833 5.42618 14.0833 5.77136C14.0833 6.08778 13.8481 6.34927 13.5431 6.39066L13.4583 6.39636L0.958252 6.39636C0.613074 6.39636 0.333252 6.11654 0.333252 5.77136Z" fill="#390179"/>
<path d="M7.97576 1.19393C7.73116 0.950378 7.7303 0.554651 7.97386 0.310048C8.19527 0.0876818 8.54244 0.0667628 8.78751 0.247781L8.85774 0.308145L13.8994 5.32814C14.1224 5.55022 14.1427 5.89864 13.9603 6.1437L13.8994 6.21389L8.85777 11.2347C8.61319 11.4783 8.21746 11.4775 7.97389 11.2329C7.75246 11.0105 7.73301 10.6633 7.91506 10.419L7.97572 10.349L12.5724 5.77079L7.97576 1.19393Z" fill="#390179"/>
</svg>
