<svg width="31" height="31" viewBox="0 0 31 31" fill="none" xmlns="http://www.w3.org/2000/svg">
<g clip-path="url(#clip0)">
<path d="M15.0159 7.91725C19.5485 7.91725 23.6109 10.2797 25.8461 14.0771H23.0502V16.4016H29.9784V9.42815H27.6496V12.5697C26.5882 10.8786 25.1918 9.41258 23.5236 8.25313C21.0196 6.51274 18.0777 5.59277 15.0159 5.59277C11.0371 5.59277 7.30386 7.1411 4.50373 9.95244C1.70907 12.7584 0.169922 16.4934 0.169922 20.4694H2.49871C2.49871 13.5481 8.11387 7.91725 15.0159 7.91725ZM10.6118 13.7865L9.10646 15.2766C8.43356 15.9482 8.36241 16.8806 8.66958 17.8261C9.20124 19.4629 9.76021 20.7482 12.3208 23.3035C14.8814 25.8589 16.238 26.2727 17.8321 26.9285C18.199 27.0794 18.5457 27.1522 18.8705 27.1522C19.4478 27.1522 19.9562 26.9222 20.3868 26.4924L21.8858 24.9903L18.0347 21.1407L16.0487 23.0788C15.5223 22.6944 14.926 22.1792 14.1864 21.4411C13.4383 20.6946 12.8683 20.0607 12.4377 19.4951L14.3656 17.555L10.6118 13.7865Z" fill="#390179"/>
</g>
<defs>
<clipPath id="clip0">
<rect width="29.8667" height="29.8114" fill="white" transform="translate(0.169922 0.905518)"/>
</clipPath>
</defs>
</svg>
