<svg width="24" height="24" viewBox="0 0 24 24" fill="none" xmlns="http://www.w3.org/2000/svg">
<path d="M15.9515 7.41016H8.07116C7.52575 7.41016 7.03125 7.87177 7.03125 8.42132V22.2137C7.03125 22.7589 7.52575 23.1966 8.07116 23.1966H8.09552H15.9274H15.9512C16.4959 23.1966 16.9658 22.7593 16.9658 22.2137V8.42132C16.9658 7.87153 16.4962 7.41016 15.9515 7.41016ZM15.0151 19.2036H9.07282V9.35892H15.0151V19.2036Z" fill="#2C0068"/>
<path d="M19.1956 4.47664C19.0253 4.46251 18.8684 4.37506 18.7666 4.23743C17.7888 2.91349 16.2181 2.09671 14.5473 2.09671C14.4406 2.09671 14.3346 2.09988 14.2282 2.10646C14.0866 2.11498 13.9473 2.07284 13.834 1.98734C12.8173 1.21928 11.5847 0.802734 10.2936 0.802734C7.98189 0.802734 5.93009 2.14324 4.97349 4.17312C4.88774 4.35484 4.71625 4.48078 4.51723 4.50831C1.96849 4.86298 0 7.05656 0 9.70128C0 12.592 2.35191 14.9439 5.24266 14.9439H5.99976V12.8785H5.24291C3.49072 12.8785 2.06569 11.4535 2.06569 9.70152C2.06569 7.94958 3.49097 6.52431 5.24291 6.52431C5.33133 6.52431 5.41829 6.53137 5.50501 6.53843C6.00999 6.57765 6.46697 6.25002 6.58974 5.76039C7.01725 4.0579 8.54021 2.86867 10.2936 2.86867C11.2955 2.86867 12.2434 3.2555 12.9632 3.95803C13.2092 4.19797 13.5583 4.30004 13.8952 4.22988C14.1098 4.1853 14.3285 4.16265 14.547 4.16265C15.7735 4.16265 16.8687 4.85227 17.4054 5.96233C17.5937 6.35281 18.0068 6.58496 18.438 6.54063C18.5452 6.52991 18.6526 6.52455 18.7568 6.52455C20.5088 6.52455 21.9341 7.94983 21.9341 9.70177C21.9341 11.4535 20.5085 12.8787 18.7568 12.8787H18.0002V14.9444H18.7568C21.6478 14.9444 23.9998 12.5928 23.9998 9.70177C24 6.95815 21.8822 4.70026 19.1956 4.47664Z" fill="#2C0068"/>
</svg>
