<svg width="18" height="18" viewBox="0 0 18 18" fill="none" xmlns="http://www.w3.org/2000/svg">
<path d="M16.5 3.8625V6.6375C16.5 8.325 15.825 9 14.1375 9H12.1125C10.425 9 9.75 8.325 9.75 6.6375V3.8625C9.75 2.175 10.425 1.5 12.1125 1.5H14.1375C15.825 1.5 16.5 2.175 16.5 3.8625Z" stroke="#6E6681" stroke-linecap="round" stroke-linejoin="round"/>
<path d="M8.25 11.3625V14.1375C8.25 15.825 7.575 16.5 5.8875 16.5H3.8625C2.175 16.5 1.5 15.825 1.5 14.1375V11.3625C1.5 9.675 2.175 9 3.8625 9H5.8875C7.575 9 8.25 9.675 8.25 11.3625Z" stroke="#6E6681" stroke-linecap="round" stroke-linejoin="round"/>
<path d="M16.5 11.25C16.5 14.1525 14.1525 16.5 11.25 16.5L12.0375 15.1875" stroke="#6E6681" stroke-linecap="round" stroke-linejoin="round"/>
<path d="M1.5 6.75C1.5 3.8475 3.8475 1.5 6.75 1.5L5.9625 2.8125" stroke="#6E6681" stroke-linecap="round" stroke-linejoin="round"/>
</svg>
