<svg width="24" height="24" viewBox="0 0 24 24" fill="none" xmlns="http://www.w3.org/2000/svg">
<path d="M12.9999 21.0004H17.9999V23.0004H5.99992V21.0004H10.9999V19.9504C9.41439 19.7912 7.88986 19.2555 6.55328 18.3879C5.2167 17.5202 4.10676 16.3458 3.31592 14.9624L5.05292 13.9704C5.6637 15.0377 6.51229 15.9497 7.53277 16.6358C8.55325 17.3219 9.71815 17.7635 10.937 17.9263C12.1558 18.0891 13.3958 17.9688 14.5606 17.5746C15.7254 17.1805 16.7836 16.5231 17.6531 15.6536C18.5226 14.7841 19.18 13.7259 19.5741 12.5611C19.9683 11.3963 20.0886 10.1563 19.9258 8.93748C19.763 7.71864 19.3214 6.55374 18.6353 5.53326C17.9493 4.51278 17.0372 3.66419 15.9699 3.05341L16.9619 1.31641C18.4929 2.19095 19.7654 3.45491 20.6502 4.98004C21.535 6.50517 22.0007 8.2372 21.9999 10.0004C21.9999 15.1854 18.0529 19.4494 12.9999 19.9504V21.0004ZM11.9999 17.0004C11.0807 17.0004 10.1704 16.8193 9.32113 16.4676C8.47185 16.1158 7.70018 15.6002 7.05017 14.9502C6.40016 14.3001 5.88454 13.5285 5.53276 12.6792C5.18098 11.8299 4.99992 10.9197 4.99992 10.0004C4.99992 9.08115 5.18098 8.1709 5.53276 7.32162C5.88454 6.47234 6.40016 5.70067 7.05017 5.05066C7.70018 4.40065 8.47185 3.88503 9.32113 3.53325C10.1704 3.18147 11.0807 3.00041 11.9999 3.00041C13.8564 3.00041 15.6369 3.7379 16.9497 5.05066C18.2624 6.36341 18.9999 8.14389 18.9999 10.0004C18.9999 11.8569 18.2624 13.6374 16.9497 14.9502C15.6369 16.2629 13.8564 17.0004 11.9999 17.0004ZM11.9999 15.0004C13.326 15.0004 14.5978 14.4736 15.5354 13.5359C16.4731 12.5983 16.9999 11.3265 16.9999 10.0004C16.9999 8.67432 16.4731 7.40255 15.5354 6.46487C14.5978 5.52719 13.326 5.00041 11.9999 5.00041C10.6738 5.00041 9.40207 5.52719 8.46438 6.46487C7.5267 7.40255 6.99992 8.67432 6.99992 10.0004C6.99992 11.3265 7.5267 12.5983 8.46438 13.5359C9.40207 14.4736 10.6738 15.0004 11.9999 15.0004Z" fill="#390179"/>
</svg>
