<svg width="27" height="17" viewBox="0 0 27 17" fill="none" xmlns="http://www.w3.org/2000/svg">
<path d="M23.9708 6.75698C21.0605 6.77505 18.7599 9.6045 17.8029 11.4864C17.0832 12.9037 17.4218 14.0556 18.7602 15.1875C18.8608 15.2706 18.9909 15.2627 19.1352 15.2889C19.2794 15.3151 19.3505 15.2929 19.5273 15.2785C19.5746 15.2847 19.6251 15.2827 19.68 15.2637C19.694 15.2574 19.7162 15.2462 19.7342 15.2378C19.7394 15.2353 19.7459 15.2349 19.7496 15.2336C19.7585 15.2298 19.758 15.2254 19.7678 15.2219C20.2959 14.9295 21.8801 13.442 21.5636 12.9929C21.4233 12.7919 21.3916 12.7085 21.1662 12.5922C20.2768 12.128 20.5799 11.6572 21.1403 11.0774C21.859 10.332 22.5788 9.11444 23.8157 10.0797C23.9005 10.1485 24.0308 10.1508 24.1287 10.1299C24.9201 9.94607 26.2187 9.14158 26.492 8.25742C26.8018 7.23327 24.9299 6.75212 23.9708 6.75698Z" fill="#390179"/>
<path d="M16.0816 16.1105H5.74196C-1.33388 15.5663 -0.245698 5.77048 7.37285 6.85883C5.1961 3.59704 10.6379 -2.38721 14.9913 3.59769C16.0796 0.877073 21.5209 -0.752272 23.6981 4.14176" stroke="#390179" stroke-width="1.5"/>
</svg>
