<svg width="14" height="14" viewBox="0 0 14 14" fill="none" xmlns="http://www.w3.org/2000/svg">
    <path d="M7.00024 9.22211H4.77802V4.77767H7.00024C7.58962 4.77767 8.15485 5.0118 8.57159 5.42854C8.98834 5.84529 9.22247 6.41052 9.22247 6.99989C9.22247 7.58926 8.98834 8.15449 8.57159 8.57124C8.15485 8.98799 7.58962 9.22211 7.00024 9.22211ZM5.88913 5.88878V8.111H7.00024C7.29493 8.111 7.57755 7.99394 7.78592 7.78557C7.99429 7.57719 8.11136 7.29458 8.11136 6.99989C8.11136 6.70521 7.99429 6.42259 7.78592 6.21422C7.57755 6.00584 7.29493 5.88878 7.00024 5.88878H5.88913ZM8.66691 2.55545H3.11136V11.4443H10.8891V4.77767H8.66691V2.55545ZM2.00024 1.99545C2.00024 1.691 2.24858 1.44434 2.55524 1.44434H9.22247L12.0002 4.22211V11.996C12.0008 12.069 11.9869 12.1413 11.9594 12.2089C11.932 12.2765 11.8915 12.338 11.8403 12.39C11.7891 12.4419 11.7281 12.4833 11.6609 12.5117C11.5937 12.5401 11.5215 12.5549 11.4486 12.5554H2.55191C2.40601 12.5544 2.26636 12.4961 2.16314 12.3929C2.05992 12.2898 2.00141 12.1502 2.00024 12.0043V1.99545Z" fill="#390179"/>
    </svg>
    