<svg width="24" height="24" viewBox="0 0 24 24" fill="none" xmlns="http://www.w3.org/2000/svg">
<path d="M11 11V6.9995H12.9995V11H17V12.9995H12.9995V17H11V12.9995H6.9995V11H11ZM11.9998 21.9995C6.47675 21.9995 2 17.5227 2 11.9997C2 6.47675 6.47675 2 11.9998 2C17.5228 2 21.9995 6.47675 21.9995 11.9997C21.9995 17.5227 17.5228 21.9995 11.9998 21.9995ZM11.9998 20C14.1215 20 16.1564 19.1571 17.6568 17.6568C19.1571 16.1564 20 14.1215 20 11.9997C20 9.87795 19.1571 7.84306 17.6568 6.34272C16.1564 4.84238 14.1215 3.9995 11.9998 3.9995C9.87795 3.9995 7.84306 4.84238 6.34272 6.34272C4.84238 7.84306 3.9995 9.87795 3.9995 11.9997C3.9995 14.1215 4.84238 16.1564 6.34272 17.6568C7.84306 19.1571 9.87795 20 11.9998 20Z" fill="#B7B3C1"/>
</svg>
