
<svg width="251" height="59" viewBox="0 0 251 59" fill="none" xmlns="http://www.w3.org/2000/svg">
<path d="M15.6718 24.5037L32.0605 44.1804H22.6845L8.37651 26.4559V44.1804H0.644531V5.49483H8.37651V22.8854L22.7359 5.49483H32.0605L15.6718 24.5037Z" fill="black"/>
<path d="M48.5768 15.0506C50.452 13.9461 52.5327 13.3809 54.8189 13.3809V21.6524H52.5841C46.9071 21.6524 44.0815 24.2725 44.0815 29.5385V44.1804H36.3495V13.8176H44.0815V19.623C45.2117 17.6965 46.7016 16.1809 48.5768 15.0506Z" fill="black"/>
<path d="M66.841 13.8176V44.206H59.109V13.8176H66.841Z" fill="black"/>
<path d="M93.2225 16.2323C95.4573 18.1075 96.8445 20.5735 97.3839 23.6817H90.14C89.8574 22.2175 89.1896 21.0616 88.1621 20.1625C87.1346 19.2891 85.7988 18.8524 84.1548 18.8524C82.8447 18.8524 81.8172 19.1607 81.0723 19.7772C80.353 20.3937 79.9677 21.2414 79.9677 22.2946C79.9677 23.1423 80.2503 23.8101 80.8411 24.3239C81.4319 24.8376 82.1512 25.2486 83.0245 25.5312C83.8979 25.8138 85.1566 26.1734 86.8006 26.5844C89.1125 27.0982 90.9877 27.6376 92.4262 28.2027C93.8647 28.7678 95.1234 29.6669 96.1509 30.8999C97.2041 32.1329 97.7178 33.7769 97.7178 35.8576C97.7178 38.4521 96.6904 40.5585 94.6867 42.1768C92.6574 43.7951 89.9345 44.5914 86.4924 44.5914C82.5365 44.5914 79.3769 43.6924 77.0136 41.9199C74.6247 40.1475 73.1862 37.6044 72.6724 34.3164H80.0704C80.2503 35.8063 80.9181 36.9879 82.0484 37.8613C83.1787 38.709 84.6685 39.1457 86.4924 39.1457C87.8024 39.1457 88.8042 38.8374 89.4978 38.1952C90.1914 37.553 90.551 36.731 90.551 35.7035C90.551 34.8301 90.2428 34.1109 89.6519 33.5714C89.0611 33.032 88.2905 32.5953 87.3914 32.3127C86.4924 32.0302 85.2337 31.6705 83.5897 31.2595C81.3291 30.7458 79.4796 30.232 78.0668 29.6926C76.654 29.1532 75.4467 28.3055 74.4449 27.1495C73.443 25.9679 72.9293 24.3753 72.9293 22.3203C72.9293 19.7001 73.9311 17.5424 75.9347 15.8983C77.9384 14.2543 80.7126 13.4323 84.2832 13.4323C88.0336 13.4323 90.9877 14.3571 93.2225 16.2323Z" fill="black"/>
<path d="M128.594 15.3078C130.649 16.5408 132.242 18.3389 133.398 20.7022C134.554 23.0654 135.119 25.8397 135.119 28.9993C135.119 32.1845 134.554 34.9588 133.398 37.2964C132.242 39.6596 130.649 41.4578 128.594 42.6908C126.539 43.9238 124.253 44.566 121.684 44.566C119.116 44.566 116.932 43.9495 115.134 42.7165C113.336 41.4835 112.026 39.8651 111.255 37.8101V58.6428H103.523V13.8179H111.255V20.137C112.026 18.082 113.31 16.4637 115.134 15.2564C116.932 14.0491 119.116 13.4583 121.684 13.4583C124.227 13.4326 126.539 14.0491 128.594 15.3078ZM113.464 22.5774C111.949 24.17 111.178 26.3278 111.178 29.025C111.178 31.6965 111.949 33.8285 113.464 35.4212C114.98 37.0138 116.906 37.8101 119.244 37.8101C121.659 37.8101 123.585 37.0395 125.049 35.4725C126.514 33.9313 127.233 31.7735 127.233 29.025C127.233 26.2764 126.514 24.1186 125.049 22.5517C123.585 20.9847 121.659 20.1884 119.244 20.1884C116.932 20.1884 114.98 20.9847 113.464 22.5774Z" fill="black"/>
<path d="M63.1423 9.45079C65.327 9.45079 67.0981 7.67968 67.0981 5.4949C67.0981 3.31012 65.327 1.539 63.1423 1.539C60.9575 1.539 59.1864 3.31012 59.1864 5.4949C59.1864 7.67968 60.9575 9.45079 63.1423 9.45079Z" fill="black"/>
<path d="M207.978 15.2917C209.879 16.5504 211.214 18.2457 212.011 20.3521V13.8018H220V45.3719H212.011V38.7702C211.214 40.9022 209.853 42.5976 207.978 43.882C206.077 45.1664 203.791 45.7829 201.145 45.7829C198.473 45.7829 196.084 45.1407 193.978 43.8563C191.846 42.5719 190.176 40.6967 188.995 38.2564C187.787 35.8161 187.196 32.9391 187.196 29.6254C187.196 26.3117 187.787 23.4346 188.995 20.9943C190.202 18.554 191.846 16.6788 193.978 15.3944C196.11 14.11 198.499 13.4678 201.145 13.4678C203.791 13.3908 206.077 14.033 207.978 15.2917ZM197.6 22.8695C196.084 24.5135 195.314 26.7483 195.314 29.5997C195.314 32.451 196.084 34.6858 197.6 36.3041C199.115 37.9225 201.145 38.7188 203.636 38.7188C206.077 38.7188 208.08 37.8968 209.647 36.2528C211.214 34.6088 212.011 32.3996 212.011 29.6254C212.011 26.8254 211.214 24.5906 209.647 22.9209C208.08 21.2769 206.077 20.4549 203.636 20.4549C201.119 20.4035 199.115 21.2255 197.6 22.8695Z" fill="#390179"/>
<path d="M235.309 3.19257V45.346H227.269V3.19257H235.309Z" fill="#390179"/>
<path d="M250.645 3.19257V45.346H242.604V3.19257H250.645Z" fill="#390179"/>
<path d="M167.055 11.9314C162.466 16.188 159.594 22.2702 159.594 29.0232C159.594 35.8069 162.492 41.9137 167.118 46.173L172.594 40.6964C169.365 37.8432 167.329 33.671 167.329 29.0232C167.329 24.4062 169.339 20.2584 172.53 17.4068L167.055 11.9314Z" fill="#390179"/>
<path d="M155.48 0.357178C147.445 7.3022 142.36 17.5691 142.36 29.0237C142.36 40.509 147.472 50.8003 155.545 57.746L161.034 52.2569C154.352 46.7288 150.095 38.3734 150.095 29.0237C150.095 19.7047 154.324 11.3736 160.968 5.84511L155.48 0.357178Z" fill="#390179"/>
<path d="M174.666 29.0546C174.666 31.2366 176.435 33.0055 178.617 33.0055C180.799 33.0055 182.568 31.2366 182.568 29.0546C182.568 26.8725 180.799 25.1036 178.617 25.1036C176.435 25.1036 174.666 26.8725 174.666 29.0546Z" fill="#390179"/>
</svg>
